ISO-10303-21;
HEADER;
/* Generated by software containing ST-Developer
 * from STEP Tools, Inc. (www.steptools.com) 
 */
/* OPTION: using custom renumber hook */

FILE_DESCRIPTION(
/* description */ ('STEP AP242 Edition 2',
'CAx-IF Rec.Pracs.---Representation and Presentation of Product Manufa
cturing Information (PMI)---4.0---2014-10-13',
'CAx-IF Rec.Pracs.---3D Tessellated Geometry---0.4---2014-09-14','2;1',
'CAx-IF Rec.Pracs.---User Defined Attributes---1.5---2016-08-15'),
/* implementation_level */ '2;1');

FILE_NAME(
/* name */ 'Case - Part 1',
/* time_stamp */ '2026-08-24T20:04:22Z',
/* author */ (''),
/* organization */ (''),
/* preprocessor_version */ 'ST-DEVELOPER v20',
/* originating_system */ 'ONSHAPE BY PTC INC, 1.219',
/* authorisation */ '  ');

FILE_SCHEMA (('AP242_MANAGED_MODEL_BASED_3D_ENGINEERING_MIM_LF { 1 0 10303 442 3 1 4 }'));
ENDSEC;

DATA;
#10=SHAPE_REPRESENTATION_RELATIONSHIP('','',#1007,#11);
#11=ADVANCED_BREP_SHAPE_REPRESENTATION('',(#1005),#1633);
#12=CYLINDRICAL_SURFACE('',#1021,0.0034);
#13=CYLINDRICAL_SURFACE('',#1024,0.0014);
#14=CYLINDRICAL_SURFACE('',#1027,0.0034);
#15=CYLINDRICAL_SURFACE('',#1030,0.0014);
#16=CYLINDRICAL_SURFACE('',#1052,0.002);
#17=CYLINDRICAL_SURFACE('',#1053,0.002);
#18=CYLINDRICAL_SURFACE('',#1054,0.002);
#19=CYLINDRICAL_SURFACE('',#1055,0.002);
#20=CYLINDRICAL_SURFACE('',#1056,0.0014);
#21=CYLINDRICAL_SURFACE('',#1059,0.0014);
#22=CYLINDRICAL_SURFACE('',#1062,0.0014);
#23=CYLINDRICAL_SURFACE('',#1065,0.0014);
#24=CIRCLE('',#1011,0.0014);
#25=CIRCLE('',#1012,0.0034);
#26=CIRCLE('',#1014,0.0014);
#27=CIRCLE('',#1015,0.0034);
#28=CIRCLE('',#1022,0.0034);
#29=CIRCLE('',#1025,0.0014);
#30=CIRCLE('',#1028,0.0034);
#31=CIRCLE('',#1031,0.0014);
#32=CIRCLE('',#1036,0.002);
#33=CIRCLE('',#1037,0.002);
#34=CIRCLE('',#1038,0.002);
#35=CIRCLE('',#1039,0.002);
#36=CIRCLE('',#1040,0.0014);
#37=CIRCLE('',#1041,0.0014);
#38=CIRCLE('',#1042,0.0014);
#39=CIRCLE('',#1043,0.0014);
#40=CIRCLE('',#1045,0.002);
#41=CIRCLE('',#1046,0.002);
#42=CIRCLE('',#1047,0.002);
#43=CIRCLE('',#1048,0.002);
#44=CIRCLE('',#1057,0.0014);
#45=CIRCLE('',#1060,0.0014);
#46=CIRCLE('',#1063,0.0014);
#47=CIRCLE('',#1066,0.0014);
#48=ORIENTED_EDGE('',*,*,#312,.F.);
#49=ORIENTED_EDGE('',*,*,#313,.T.);
#50=ORIENTED_EDGE('',*,*,#314,.F.);
#51=ORIENTED_EDGE('',*,*,#315,.T.);
#52=ORIENTED_EDGE('',*,*,#316,.T.);
#53=ORIENTED_EDGE('',*,*,#317,.T.);
#54=ORIENTED_EDGE('',*,*,#318,.F.);
#55=ORIENTED_EDGE('',*,*,#319,.F.);
#56=ORIENTED_EDGE('',*,*,#320,.F.);
#57=ORIENTED_EDGE('',*,*,#321,.T.);
#58=ORIENTED_EDGE('',*,*,#322,.T.);
#59=ORIENTED_EDGE('',*,*,#323,.F.);
#60=ORIENTED_EDGE('',*,*,#324,.T.);
#61=ORIENTED_EDGE('',*,*,#325,.T.);
#62=ORIENTED_EDGE('',*,*,#326,.F.);
#63=ORIENTED_EDGE('',*,*,#327,.T.);
#64=ORIENTED_EDGE('',*,*,#328,.T.);
#65=ORIENTED_EDGE('',*,*,#329,.T.);
#66=ORIENTED_EDGE('',*,*,#330,.F.);
#67=ORIENTED_EDGE('',*,*,#331,.T.);
#68=ORIENTED_EDGE('',*,*,#332,.T.);
#69=ORIENTED_EDGE('',*,*,#333,.F.);
#70=ORIENTED_EDGE('',*,*,#334,.F.);
#71=ORIENTED_EDGE('',*,*,#335,.T.);
#72=ORIENTED_EDGE('',*,*,#336,.T.);
#73=ORIENTED_EDGE('',*,*,#337,.F.);
#74=ORIENTED_EDGE('',*,*,#338,.F.);
#75=ORIENTED_EDGE('',*,*,#339,.T.);
#76=ORIENTED_EDGE('',*,*,#340,.T.);
#77=ORIENTED_EDGE('',*,*,#341,.F.);
#78=ORIENTED_EDGE('',*,*,#342,.F.);
#79=ORIENTED_EDGE('',*,*,#343,.T.);
#80=ORIENTED_EDGE('',*,*,#344,.T.);
#81=ORIENTED_EDGE('',*,*,#345,.F.);
#82=ORIENTED_EDGE('',*,*,#346,.F.);
#83=ORIENTED_EDGE('',*,*,#347,.T.);
#84=ORIENTED_EDGE('',*,*,#348,.F.);
#85=ORIENTED_EDGE('',*,*,#323,.T.);
#86=ORIENTED_EDGE('',*,*,#349,.F.);
#87=ORIENTED_EDGE('',*,*,#350,.F.);
#88=ORIENTED_EDGE('',*,*,#351,.T.);
#89=ORIENTED_EDGE('',*,*,#352,.T.);
#90=ORIENTED_EDGE('',*,*,#353,.F.);
#91=ORIENTED_EDGE('',*,*,#354,.T.);
#92=ORIENTED_EDGE('',*,*,#349,.T.);
#93=ORIENTED_EDGE('',*,*,#322,.F.);
#94=ORIENTED_EDGE('',*,*,#355,.T.);
#95=ORIENTED_EDGE('',*,*,#356,.F.);
#96=ORIENTED_EDGE('',*,*,#357,.F.);
#97=ORIENTED_EDGE('',*,*,#358,.T.);
#98=ORIENTED_EDGE('',*,*,#359,.T.);
#99=ORIENTED_EDGE('',*,*,#360,.T.);
#100=ORIENTED_EDGE('',*,*,#353,.T.);
#101=ORIENTED_EDGE('',*,*,#361,.F.);
#102=ORIENTED_EDGE('',*,*,#362,.F.);
#103=ORIENTED_EDGE('',*,*,#329,.F.);
#104=ORIENTED_EDGE('',*,*,#363,.F.);
#105=ORIENTED_EDGE('',*,*,#364,.T.);
#106=ORIENTED_EDGE('',*,*,#351,.F.);
#107=ORIENTED_EDGE('',*,*,#365,.T.);
#108=ORIENTED_EDGE('',*,*,#363,.T.);
#109=ORIENTED_EDGE('',*,*,#328,.F.);
#110=ORIENTED_EDGE('',*,*,#366,.T.);
#111=ORIENTED_EDGE('',*,*,#367,.T.);
#112=ORIENTED_EDGE('',*,*,#368,.T.);
#113=ORIENTED_EDGE('',*,*,#369,.F.);
#114=ORIENTED_EDGE('',*,*,#324,.F.);
#115=ORIENTED_EDGE('',*,*,#348,.T.);
#116=ORIENTED_EDGE('',*,*,#370,.T.);
#117=ORIENTED_EDGE('',*,*,#371,.F.);
#118=ORIENTED_EDGE('',*,*,#325,.F.);
#119=ORIENTED_EDGE('',*,*,#369,.T.);
#120=ORIENTED_EDGE('',*,*,#372,.T.);
#121=ORIENTED_EDGE('',*,*,#355,.F.);
#122=ORIENTED_EDGE('',*,*,#321,.F.);
#123=ORIENTED_EDGE('',*,*,#371,.T.);
#124=ORIENTED_EDGE('',*,*,#320,.T.);
#125=ORIENTED_EDGE('',*,*,#373,.F.);
#126=ORIENTED_EDGE('',*,*,#374,.F.);
#127=ORIENTED_EDGE('',*,*,#375,.F.);
#128=ORIENTED_EDGE('',*,*,#330,.T.);
#129=ORIENTED_EDGE('',*,*,#362,.T.);
#130=ORIENTED_EDGE('',*,*,#376,.T.);
#131=ORIENTED_EDGE('',*,*,#377,.F.);
#132=ORIENTED_EDGE('',*,*,#331,.F.);
#133=ORIENTED_EDGE('',*,*,#375,.T.);
#134=ORIENTED_EDGE('',*,*,#378,.T.);
#135=ORIENTED_EDGE('',*,*,#366,.F.);
#136=ORIENTED_EDGE('',*,*,#327,.F.);
#137=ORIENTED_EDGE('',*,*,#377,.T.);
#138=ORIENTED_EDGE('',*,*,#326,.T.);
#139=ORIENTED_EDGE('',*,*,#379,.F.);
#140=ORIENTED_EDGE('',*,*,#373,.T.);
#141=ORIENTED_EDGE('',*,*,#376,.F.);
#142=ORIENTED_EDGE('',*,*,#374,.T.);
#143=ORIENTED_EDGE('',*,*,#361,.T.);
#144=ORIENTED_EDGE('',*,*,#356,.T.);
#145=ORIENTED_EDGE('',*,*,#372,.F.);
#146=ORIENTED_EDGE('',*,*,#370,.F.);
#147=ORIENTED_EDGE('',*,*,#368,.F.);
#148=ORIENTED_EDGE('',*,*,#352,.F.);
#149=ORIENTED_EDGE('',*,*,#367,.F.);
#150=ORIENTED_EDGE('',*,*,#378,.F.);
#151=ORIENTED_EDGE('',*,*,#379,.T.);
#152=ORIENTED_EDGE('',*,*,#380,.F.);
#153=ORIENTED_EDGE('',*,*,#364,.F.);
#154=ORIENTED_EDGE('',*,*,#365,.F.);
#155=ORIENTED_EDGE('',*,*,#350,.T.);
#156=ORIENTED_EDGE('',*,*,#354,.F.);
#157=ORIENTED_EDGE('',*,*,#360,.F.);
#158=ORIENTED_EDGE('',*,*,#381,.T.);
#159=ORIENTED_EDGE('',*,*,#318,.T.);
#160=ORIENTED_EDGE('',*,*,#382,.T.);
#161=ORIENTED_EDGE('',*,*,#383,.T.);
#162=ORIENTED_EDGE('',*,*,#384,.T.);
#163=ORIENTED_EDGE('',*,*,#385,.F.);
#164=ORIENTED_EDGE('',*,*,#386,.T.);
#165=ORIENTED_EDGE('',*,*,#387,.F.);
#166=ORIENTED_EDGE('',*,*,#388,.T.);
#167=ORIENTED_EDGE('',*,*,#314,.T.);
#168=ORIENTED_EDGE('',*,*,#389,.F.);
#169=ORIENTED_EDGE('',*,*,#390,.F.);
#170=ORIENTED_EDGE('',*,*,#391,.F.);
#171=ORIENTED_EDGE('',*,*,#392,.F.);
#172=ORIENTED_EDGE('',*,*,#393,.F.);
#173=ORIENTED_EDGE('',*,*,#394,.T.);
#174=ORIENTED_EDGE('',*,*,#316,.F.);
#175=ORIENTED_EDGE('',*,*,#395,.T.);
#176=ORIENTED_EDGE('',*,*,#396,.T.);
#177=ORIENTED_EDGE('',*,*,#397,.T.);
#178=ORIENTED_EDGE('',*,*,#398,.T.);
#179=ORIENTED_EDGE('',*,*,#399,.T.);
#180=ORIENTED_EDGE('',*,*,#396,.F.);
#181=ORIENTED_EDGE('',*,*,#400,.T.);
#182=ORIENTED_EDGE('',*,*,#387,.T.);
#183=ORIENTED_EDGE('',*,*,#401,.T.);
#184=ORIENTED_EDGE('',*,*,#402,.F.);
#185=ORIENTED_EDGE('',*,*,#403,.F.);
#186=ORIENTED_EDGE('',*,*,#404,.T.);
#187=ORIENTED_EDGE('',*,*,#405,.T.);
#188=ORIENTED_EDGE('',*,*,#406,.F.);
#189=ORIENTED_EDGE('',*,*,#407,.F.);
#190=ORIENTED_EDGE('',*,*,#408,.T.);
#191=ORIENTED_EDGE('',*,*,#409,.T.);
#192=ORIENTED_EDGE('',*,*,#410,.F.);
#193=ORIENTED_EDGE('',*,*,#411,.F.);
#194=ORIENTED_EDGE('',*,*,#412,.T.);
#195=ORIENTED_EDGE('',*,*,#413,.T.);
#196=ORIENTED_EDGE('',*,*,#414,.F.);
#197=ORIENTED_EDGE('',*,*,#415,.F.);
#198=ORIENTED_EDGE('',*,*,#416,.T.);
#199=ORIENTED_EDGE('',*,*,#417,.T.);
#200=ORIENTED_EDGE('',*,*,#398,.F.);
#201=ORIENTED_EDGE('',*,*,#418,.T.);
#202=ORIENTED_EDGE('',*,*,#385,.T.);
#203=ORIENTED_EDGE('',*,*,#419,.T.);
#204=ORIENTED_EDGE('',*,*,#383,.F.);
#205=ORIENTED_EDGE('',*,*,#420,.T.);
#206=ORIENTED_EDGE('',*,*,#393,.T.);
#207=ORIENTED_EDGE('',*,*,#421,.T.);
#208=ORIENTED_EDGE('',*,*,#394,.F.);
#209=ORIENTED_EDGE('',*,*,#420,.F.);
#210=ORIENTED_EDGE('',*,*,#382,.F.);
#211=ORIENTED_EDGE('',*,*,#317,.F.);
#212=ORIENTED_EDGE('',*,*,#395,.F.);
#213=ORIENTED_EDGE('',*,*,#315,.F.);
#214=ORIENTED_EDGE('',*,*,#388,.F.);
#215=ORIENTED_EDGE('',*,*,#400,.F.);
#216=ORIENTED_EDGE('',*,*,#397,.F.);
#217=ORIENTED_EDGE('',*,*,#401,.F.);
#218=ORIENTED_EDGE('',*,*,#386,.F.);
#219=ORIENTED_EDGE('',*,*,#418,.F.);
#220=ORIENTED_EDGE('',*,*,#399,.F.);
#221=ORIENTED_EDGE('',*,*,#419,.F.);
#222=ORIENTED_EDGE('',*,*,#384,.F.);
#223=ORIENTED_EDGE('',*,*,#421,.F.);
#224=ORIENTED_EDGE('',*,*,#422,.F.);
#225=ORIENTED_EDGE('',*,*,#392,.T.);
#226=ORIENTED_EDGE('',*,*,#422,.T.);
#227=ORIENTED_EDGE('',*,*,#423,.F.);
#228=ORIENTED_EDGE('',*,*,#391,.T.);
#229=ORIENTED_EDGE('',*,*,#423,.T.);
#230=ORIENTED_EDGE('',*,*,#424,.F.);
#231=ORIENTED_EDGE('',*,*,#390,.T.);
#232=ORIENTED_EDGE('',*,*,#424,.T.);
#233=ORIENTED_EDGE('',*,*,#425,.F.);
#234=ORIENTED_EDGE('',*,*,#389,.T.);
#235=ORIENTED_EDGE('',*,*,#425,.T.);
#236=ORIENTED_EDGE('',*,*,#357,.T.);
#237=ORIENTED_EDGE('',*,*,#380,.T.);
#238=ORIENTED_EDGE('',*,*,#313,.F.);
#239=ORIENTED_EDGE('',*,*,#426,.F.);
#240=ORIENTED_EDGE('',*,*,#426,.T.);
#241=ORIENTED_EDGE('',*,*,#312,.T.);
#242=ORIENTED_EDGE('',*,*,#427,.F.);
#243=ORIENTED_EDGE('',*,*,#358,.F.);
#244=ORIENTED_EDGE('',*,*,#427,.T.);
#245=ORIENTED_EDGE('',*,*,#319,.T.);
#246=ORIENTED_EDGE('',*,*,#381,.F.);
#247=ORIENTED_EDGE('',*,*,#359,.F.);
#248=ORIENTED_EDGE('',*,*,#428,.T.);
#249=ORIENTED_EDGE('',*,*,#417,.F.);
#250=ORIENTED_EDGE('',*,*,#429,.F.);
#251=ORIENTED_EDGE('',*,*,#347,.F.);
#252=ORIENTED_EDGE('',*,*,#346,.T.);
#253=ORIENTED_EDGE('',*,*,#430,.T.);
#254=ORIENTED_EDGE('',*,*,#414,.T.);
#255=ORIENTED_EDGE('',*,*,#428,.F.);
#256=ORIENTED_EDGE('',*,*,#429,.T.);
#257=ORIENTED_EDGE('',*,*,#416,.F.);
#258=ORIENTED_EDGE('',*,*,#431,.F.);
#259=ORIENTED_EDGE('',*,*,#344,.F.);
#260=ORIENTED_EDGE('',*,*,#345,.T.);
#261=ORIENTED_EDGE('',*,*,#431,.T.);
#262=ORIENTED_EDGE('',*,*,#415,.T.);
#263=ORIENTED_EDGE('',*,*,#430,.F.);
#264=ORIENTED_EDGE('',*,*,#432,.T.);
#265=ORIENTED_EDGE('',*,*,#413,.F.);
#266=ORIENTED_EDGE('',*,*,#433,.F.);
#267=ORIENTED_EDGE('',*,*,#343,.F.);
#268=ORIENTED_EDGE('',*,*,#342,.T.);
#269=ORIENTED_EDGE('',*,*,#434,.T.);
#270=ORIENTED_EDGE('',*,*,#410,.T.);
#271=ORIENTED_EDGE('',*,*,#432,.F.);
#272=ORIENTED_EDGE('',*,*,#433,.T.);
#273=ORIENTED_EDGE('',*,*,#412,.F.);
#274=ORIENTED_EDGE('',*,*,#435,.F.);
#275=ORIENTED_EDGE('',*,*,#340,.F.);
#276=ORIENTED_EDGE('',*,*,#341,.T.);
#277=ORIENTED_EDGE('',*,*,#435,.T.);
#278=ORIENTED_EDGE('',*,*,#411,.T.);
#279=ORIENTED_EDGE('',*,*,#434,.F.);
#280=ORIENTED_EDGE('',*,*,#436,.T.);
#281=ORIENTED_EDGE('',*,*,#409,.F.);
#282=ORIENTED_EDGE('',*,*,#437,.F.);
#283=ORIENTED_EDGE('',*,*,#339,.F.);
#284=ORIENTED_EDGE('',*,*,#338,.T.);
#285=ORIENTED_EDGE('',*,*,#438,.T.);
#286=ORIENTED_EDGE('',*,*,#406,.T.);
#287=ORIENTED_EDGE('',*,*,#436,.F.);
#288=ORIENTED_EDGE('',*,*,#437,.T.);
#289=ORIENTED_EDGE('',*,*,#408,.F.);
#290=ORIENTED_EDGE('',*,*,#439,.F.);
#291=ORIENTED_EDGE('',*,*,#336,.F.);
#292=ORIENTED_EDGE('',*,*,#337,.T.);
#293=ORIENTED_EDGE('',*,*,#439,.T.);
#294=ORIENTED_EDGE('',*,*,#407,.T.);
#295=ORIENTED_EDGE('',*,*,#438,.F.);
#296=ORIENTED_EDGE('',*,*,#440,.T.);
#297=ORIENTED_EDGE('',*,*,#405,.F.);
#298=ORIENTED_EDGE('',*,*,#441,.F.);
#299=ORIENTED_EDGE('',*,*,#335,.F.);
#300=ORIENTED_EDGE('',*,*,#334,.T.);
#301=ORIENTED_EDGE('',*,*,#442,.T.);
#302=ORIENTED_EDGE('',*,*,#402,.T.);
#303=ORIENTED_EDGE('',*,*,#440,.F.);
#304=ORIENTED_EDGE('',*,*,#441,.T.);
#305=ORIENTED_EDGE('',*,*,#404,.F.);
#306=ORIENTED_EDGE('',*,*,#443,.F.);
#307=ORIENTED_EDGE('',*,*,#332,.F.);
#308=ORIENTED_EDGE('',*,*,#333,.T.);
#309=ORIENTED_EDGE('',*,*,#443,.T.);
#310=ORIENTED_EDGE('',*,*,#403,.T.);
#311=ORIENTED_EDGE('',*,*,#442,.F.);
#312=EDGE_CURVE('',#444,#445,#536,.T.);
#313=EDGE_CURVE('',#444,#446,#537,.T.);
#314=EDGE_CURVE('',#447,#446,#538,.T.);
#315=EDGE_CURVE('',#447,#448,#539,.F.);
#316=EDGE_CURVE('',#448,#449,#540,.T.);
#317=EDGE_CURVE('',#449,#450,#541,.T.);
#318=EDGE_CURVE('',#451,#450,#542,.T.);
#319=EDGE_CURVE('',#445,#451,#543,.T.);
#320=EDGE_CURVE('',#452,#452,#24,.T.);
#321=EDGE_CURVE('',#453,#454,#544,.T.);
#322=EDGE_CURVE('',#454,#455,#545,.T.);
#323=EDGE_CURVE('',#456,#455,#546,.T.);
#324=EDGE_CURVE('',#456,#457,#547,.T.);
#325=EDGE_CURVE('',#457,#453,#25,.T.);
#326=EDGE_CURVE('',#458,#458,#26,.T.);
#327=EDGE_CURVE('',#459,#460,#548,.T.);
#328=EDGE_CURVE('',#460,#461,#549,.T.);
#329=EDGE_CURVE('',#461,#462,#550,.T.);
#330=EDGE_CURVE('',#463,#462,#551,.T.);
#331=EDGE_CURVE('',#463,#459,#27,.T.);
#332=EDGE_CURVE('',#464,#465,#552,.T.);
#333=EDGE_CURVE('',#466,#465,#553,.T.);
#334=EDGE_CURVE('',#467,#466,#554,.T.);
#335=EDGE_CURVE('',#467,#464,#555,.T.);
#336=EDGE_CURVE('',#468,#469,#556,.T.);
#337=EDGE_CURVE('',#470,#469,#557,.T.);
#338=EDGE_CURVE('',#471,#470,#558,.T.);
#339=EDGE_CURVE('',#471,#468,#559,.T.);
#340=EDGE_CURVE('',#472,#473,#560,.T.);
#341=EDGE_CURVE('',#474,#473,#561,.T.);
#342=EDGE_CURVE('',#475,#474,#562,.T.);
#343=EDGE_CURVE('',#475,#472,#563,.T.);
#344=EDGE_CURVE('',#476,#477,#564,.T.);
#345=EDGE_CURVE('',#478,#477,#565,.T.);
#346=EDGE_CURVE('',#479,#478,#566,.T.);
#347=EDGE_CURVE('',#479,#476,#567,.T.);
#348=EDGE_CURVE('',#456,#480,#568,.T.);
#349=EDGE_CURVE('',#481,#455,#569,.T.);
#350=EDGE_CURVE('',#482,#481,#570,.T.);
#351=EDGE_CURVE('',#482,#483,#571,.T.);
#352=EDGE_CURVE('',#483,#480,#572,.T.);
#353=EDGE_CURVE('',#484,#485,#573,.T.);
#354=EDGE_CURVE('',#484,#481,#574,.T.);
#355=EDGE_CURVE('',#454,#486,#575,.T.);
#356=EDGE_CURVE('',#485,#486,#576,.T.);
#357=EDGE_CURVE('',#487,#488,#577,.T.);
#358=EDGE_CURVE('',#487,#489,#578,.T.);
#359=EDGE_CURVE('',#489,#490,#579,.T.);
#360=EDGE_CURVE('',#490,#484,#580,.T.);
#361=EDGE_CURVE('',#491,#485,#581,.T.);
#362=EDGE_CURVE('',#462,#491,#582,.T.);
#363=EDGE_CURVE('',#492,#461,#583,.T.);
#364=EDGE_CURVE('',#492,#488,#584,.T.);
#365=EDGE_CURVE('',#482,#492,#585,.T.);
#366=EDGE_CURVE('',#460,#493,#586,.T.);
#367=EDGE_CURVE('',#493,#483,#587,.T.);
#368=EDGE_CURVE('',#480,#494,#588,.T.);
#369=EDGE_CURVE('',#457,#494,#589,.T.);
#370=EDGE_CURVE('',#494,#495,#28,.T.);
#371=EDGE_CURVE('',#453,#495,#590,.T.);
#372=EDGE_CURVE('',#495,#486,#591,.T.);
#373=EDGE_CURVE('',#496,#496,#29,.T.);
#374=EDGE_CURVE('',#497,#491,#592,.T.);
#375=EDGE_CURVE('',#463,#497,#593,.T.);
#376=EDGE_CURVE('',#497,#498,#30,.T.);
#377=EDGE_CURVE('',#459,#498,#594,.T.);
#378=EDGE_CURVE('',#498,#493,#595,.T.);
#379=EDGE_CURVE('',#499,#499,#31,.T.);
#380=EDGE_CURVE('',#488,#446,#596,.T.);
#381=EDGE_CURVE('',#490,#451,#597,.T.);
#382=EDGE_CURVE('',#450,#500,#32,.T.);
#383=EDGE_CURVE('',#500,#501,#598,.T.);
#384=EDGE_CURVE('',#501,#502,#33,.T.);
#385=EDGE_CURVE('',#503,#502,#599,.T.);
#386=EDGE_CURVE('',#503,#504,#34,.T.);
#387=EDGE_CURVE('',#505,#504,#600,.T.);
#388=EDGE_CURVE('',#505,#447,#35,.T.);
#389=EDGE_CURVE('',#506,#506,#36,.T.);
#390=EDGE_CURVE('',#507,#507,#37,.T.);
#391=EDGE_CURVE('',#508,#508,#38,.T.);
#392=EDGE_CURVE('',#509,#509,#39,.T.);
#393=EDGE_CURVE('',#510,#511,#601,.T.);
#394=EDGE_CURVE('',#510,#449,#40,.F.);
#395=EDGE_CURVE('',#448,#512,#41,.F.);
#396=EDGE_CURVE('',#512,#513,#602,.T.);
#397=EDGE_CURVE('',#513,#514,#42,.F.);
#398=EDGE_CURVE('',#514,#515,#603,.T.);
#399=EDGE_CURVE('',#515,#511,#43,.F.);
#400=EDGE_CURVE('',#512,#505,#604,.T.);
#401=EDGE_CURVE('',#504,#513,#605,.F.);
#402=EDGE_CURVE('',#516,#517,#606,.T.);
#403=EDGE_CURVE('',#518,#516,#607,.T.);
#404=EDGE_CURVE('',#518,#519,#608,.T.);
#405=EDGE_CURVE('',#519,#517,#609,.T.);
#406=EDGE_CURVE('',#520,#521,#610,.T.);
#407=EDGE_CURVE('',#522,#520,#611,.T.);
#408=EDGE_CURVE('',#522,#523,#612,.T.);
#409=EDGE_CURVE('',#523,#521,#613,.T.);
#410=EDGE_CURVE('',#524,#525,#614,.T.);
#411=EDGE_CURVE('',#526,#524,#615,.T.);
#412=EDGE_CURVE('',#526,#527,#616,.T.);
#413=EDGE_CURVE('',#527,#525,#617,.T.);
#414=EDGE_CURVE('',#528,#529,#618,.T.);
#415=EDGE_CURVE('',#530,#528,#619,.T.);
#416=EDGE_CURVE('',#530,#531,#620,.T.);
#417=EDGE_CURVE('',#531,#529,#621,.T.);
#418=EDGE_CURVE('',#514,#503,#622,.T.);
#419=EDGE_CURVE('',#502,#515,#623,.F.);
#420=EDGE_CURVE('',#500,#510,#624,.F.);
#421=EDGE_CURVE('',#511,#501,#625,.T.);
#422=EDGE_CURVE('',#532,#532,#44,.T.);
#423=EDGE_CURVE('',#533,#533,#45,.T.);
#424=EDGE_CURVE('',#534,#534,#46,.T.);
#425=EDGE_CURVE('',#535,#535,#47,.T.);
#426=EDGE_CURVE('',#487,#444,#626,.T.);
#427=EDGE_CURVE('',#489,#445,#627,.T.);
#428=EDGE_CURVE('',#479,#529,#628,.T.);
#429=EDGE_CURVE('',#476,#531,#629,.T.);
#430=EDGE_CURVE('',#478,#528,#630,.T.);
#431=EDGE_CURVE('',#477,#530,#631,.T.);
#432=EDGE_CURVE('',#475,#525,#632,.T.);
#433=EDGE_CURVE('',#472,#527,#633,.T.);
#434=EDGE_CURVE('',#474,#524,#634,.T.);
#435=EDGE_CURVE('',#473,#526,#635,.T.);
#436=EDGE_CURVE('',#471,#521,#636,.T.);
#437=EDGE_CURVE('',#468,#523,#637,.T.);
#438=EDGE_CURVE('',#470,#520,#638,.T.);
#439=EDGE_CURVE('',#469,#522,#639,.T.);
#440=EDGE_CURVE('',#467,#517,#640,.T.);
#441=EDGE_CURVE('',#464,#519,#641,.T.);
#442=EDGE_CURVE('',#466,#516,#642,.T.);
#443=EDGE_CURVE('',#465,#518,#643,.T.);
#444=VERTEX_POINT('',#1356);
#445=VERTEX_POINT('',#1357);
#446=VERTEX_POINT('',#1359);
#447=VERTEX_POINT('',#1361);
#448=VERTEX_POINT('',#1363);
#449=VERTEX_POINT('',#1365);
#450=VERTEX_POINT('',#1367);
#451=VERTEX_POINT('',#1369);
#452=VERTEX_POINT('',#1373);
#453=VERTEX_POINT('',#1375);
#454=VERTEX_POINT('',#1376);
#455=VERTEX_POINT('',#1378);
#456=VERTEX_POINT('',#1380);
#457=VERTEX_POINT('',#1382);
#458=VERTEX_POINT('',#1386);
#459=VERTEX_POINT('',#1388);
#460=VERTEX_POINT('',#1389);
#461=VERTEX_POINT('',#1391);
#462=VERTEX_POINT('',#1393);
#463=VERTEX_POINT('',#1395);
#464=VERTEX_POINT('',#1399);
#465=VERTEX_POINT('',#1400);
#466=VERTEX_POINT('',#1402);
#467=VERTEX_POINT('',#1404);
#468=VERTEX_POINT('',#1407);
#469=VERTEX_POINT('',#1408);
#470=VERTEX_POINT('',#1410);
#471=VERTEX_POINT('',#1412);
#472=VERTEX_POINT('',#1415);
#473=VERTEX_POINT('',#1416);
#474=VERTEX_POINT('',#1418);
#475=VERTEX_POINT('',#1420);
#476=VERTEX_POINT('',#1423);
#477=VERTEX_POINT('',#1424);
#478=VERTEX_POINT('',#1426);
#479=VERTEX_POINT('',#1428);
#480=VERTEX_POINT('',#1431);
#481=VERTEX_POINT('',#1433);
#482=VERTEX_POINT('',#1435);
#483=VERTEX_POINT('',#1437);
#484=VERTEX_POINT('',#1441);
#485=VERTEX_POINT('',#1442);
#486=VERTEX_POINT('',#1445);
#487=VERTEX_POINT('',#1449);
#488=VERTEX_POINT('',#1450);
#489=VERTEX_POINT('',#1452);
#490=VERTEX_POINT('',#1454);
#491=VERTEX_POINT('',#1457);
#492=VERTEX_POINT('',#1460);
#493=VERTEX_POINT('',#1465);
#494=VERTEX_POINT('',#1469);
#495=VERTEX_POINT('',#1473);
#496=VERTEX_POINT('',#1479);
#497=VERTEX_POINT('',#1482);
#498=VERTEX_POINT('',#1486);
#499=VERTEX_POINT('',#1492);
#500=VERTEX_POINT('',#1500);
#501=VERTEX_POINT('',#1502);
#502=VERTEX_POINT('',#1504);
#503=VERTEX_POINT('',#1506);
#504=VERTEX_POINT('',#1508);
#505=VERTEX_POINT('',#1510);
#506=VERTEX_POINT('',#1513);
#507=VERTEX_POINT('',#1515);
#508=VERTEX_POINT('',#1517);
#509=VERTEX_POINT('',#1519);
#510=VERTEX_POINT('',#1522);
#511=VERTEX_POINT('',#1523);
#512=VERTEX_POINT('',#1526);
#513=VERTEX_POINT('',#1528);
#514=VERTEX_POINT('',#1530);
#515=VERTEX_POINT('',#1532);
#516=VERTEX_POINT('',#1539);
#517=VERTEX_POINT('',#1540);
#518=VERTEX_POINT('',#1542);
#519=VERTEX_POINT('',#1544);
#520=VERTEX_POINT('',#1547);
#521=VERTEX_POINT('',#1548);
#522=VERTEX_POINT('',#1550);
#523=VERTEX_POINT('',#1552);
#524=VERTEX_POINT('',#1555);
#525=VERTEX_POINT('',#1556);
#526=VERTEX_POINT('',#1558);
#527=VERTEX_POINT('',#1560);
#528=VERTEX_POINT('',#1563);
#529=VERTEX_POINT('',#1564);
#530=VERTEX_POINT('',#1566);
#531=VERTEX_POINT('',#1568);
#532=VERTEX_POINT('',#1581);
#533=VERTEX_POINT('',#1585);
#534=VERTEX_POINT('',#1589);
#535=VERTEX_POINT('',#1593);
#536=LINE('',#1355,#644);
#537=LINE('',#1358,#645);
#538=LINE('',#1360,#646);
#539=LINE('',#1362,#647);
#540=LINE('',#1364,#648);
#541=LINE('',#1366,#649);
#542=LINE('',#1368,#650);
#543=LINE('',#1370,#651);
#544=LINE('',#1374,#652);
#545=LINE('',#1377,#653);
#546=LINE('',#1379,#654);
#547=LINE('',#1381,#655);
#548=LINE('',#1387,#656);
#549=LINE('',#1390,#657);
#550=LINE('',#1392,#658);
#551=LINE('',#1394,#659);
#552=LINE('',#1398,#660);
#553=LINE('',#1401,#661);
#554=LINE('',#1403,#662);
#555=LINE('',#1405,#663);
#556=LINE('',#1406,#664);
#557=LINE('',#1409,#665);
#558=LINE('',#1411,#666);
#559=LINE('',#1413,#667);
#560=LINE('',#1414,#668);
#561=LINE('',#1417,#669);
#562=LINE('',#1419,#670);
#563=LINE('',#1421,#671);
#564=LINE('',#1422,#672);
#565=LINE('',#1425,#673);
#566=LINE('',#1427,#674);
#567=LINE('',#1429,#675);
#568=LINE('',#1430,#676);
#569=LINE('',#1432,#677);
#570=LINE('',#1434,#678);
#571=LINE('',#1436,#679);
#572=LINE('',#1438,#680);
#573=LINE('',#1440,#681);
#574=LINE('',#1443,#682);
#575=LINE('',#1444,#683);
#576=LINE('',#1446,#684);
#577=LINE('',#1448,#685);
#578=LINE('',#1451,#686);
#579=LINE('',#1453,#687);
#580=LINE('',#1455,#688);
#581=LINE('',#1456,#689);
#582=LINE('',#1458,#690);
#583=LINE('',#1459,#691);
#584=LINE('',#1461,#692);
#585=LINE('',#1463,#693);
#586=LINE('',#1464,#694);
#587=LINE('',#1466,#695);
#588=LINE('',#1468,#696);
#589=LINE('',#1470,#697);
#590=LINE('',#1474,#698);
#591=LINE('',#1476,#699);
#592=LINE('',#1481,#700);
#593=LINE('',#1483,#701);
#594=LINE('',#1487,#702);
#595=LINE('',#1489,#703);
#596=LINE('',#1497,#704);
#597=LINE('',#1498,#705);
#598=LINE('',#1501,#706);
#599=LINE('',#1505,#707);
#600=LINE('',#1509,#708);
#601=LINE('',#1521,#709);
#602=LINE('',#1527,#710);
#603=LINE('',#1531,#711);
#604=LINE('',#1535,#712);
#605=LINE('',#1536,#713);
#606=LINE('',#1538,#714);
#607=LINE('',#1541,#715);
#608=LINE('',#1543,#716);
#609=LINE('',#1545,#717);
#610=LINE('',#1546,#718);
#611=LINE('',#1549,#719);
#612=LINE('',#1551,#720);
#613=LINE('',#1553,#721);
#614=LINE('',#1554,#722);
#615=LINE('',#1557,#723);
#616=LINE('',#1559,#724);
#617=LINE('',#1561,#725);
#618=LINE('',#1562,#726);
#619=LINE('',#1565,#727);
#620=LINE('',#1567,#728);
#621=LINE('',#1569,#729);
#622=LINE('',#1570,#730);
#623=LINE('',#1571,#731);
#624=LINE('',#1573,#732);
#625=LINE('',#1574,#733);
#626=LINE('',#1596,#734);
#627=LINE('',#1598,#735);
#628=LINE('',#1601,#736);
#629=LINE('',#1602,#737);
#630=LINE('',#1604,#738);
#631=LINE('',#1606,#739);
#632=LINE('',#1609,#740);
#633=LINE('',#1610,#741);
#634=LINE('',#1612,#742);
#635=LINE('',#1614,#743);
#636=LINE('',#1617,#744);
#637=LINE('',#1618,#745);
#638=LINE('',#1620,#746);
#639=LINE('',#1622,#747);
#640=LINE('',#1625,#748);
#641=LINE('',#1626,#749);
#642=LINE('',#1628,#750);
#643=LINE('',#1630,#751);
#644=VECTOR('',#1091,1.);
#645=VECTOR('',#1092,1.);
#646=VECTOR('',#1093,1.);
#647=VECTOR('',#1094,1.);
#648=VECTOR('',#1095,1.);
#649=VECTOR('',#1096,1.);
#650=VECTOR('',#1097,1.);
#651=VECTOR('',#1098,1.);
#652=VECTOR('',#1103,1.);
#653=VECTOR('',#1104,1.);
#654=VECTOR('',#1105,1.);
#655=VECTOR('',#1106,1.);
#656=VECTOR('',#1113,1.);
#657=VECTOR('',#1114,1.);
#658=VECTOR('',#1115,1.);
#659=VECTOR('',#1116,1.);
#660=VECTOR('',#1121,1.);
#661=VECTOR('',#1122,1.);
#662=VECTOR('',#1123,1.);
#663=VECTOR('',#1124,1.);
#664=VECTOR('',#1125,1.);
#665=VECTOR('',#1126,1.);
#666=VECTOR('',#1127,1.);
#667=VECTOR('',#1128,1.);
#668=VECTOR('',#1129,1.);
#669=VECTOR('',#1130,1.);
#670=VECTOR('',#1131,1.);
#671=VECTOR('',#1132,1.);
#672=VECTOR('',#1133,1.);
#673=VECTOR('',#1134,1.);
#674=VECTOR('',#1135,1.);
#675=VECTOR('',#1136,1.);
#676=VECTOR('',#1137,1.);
#677=VECTOR('',#1138,1.);
#678=VECTOR('',#1139,1.);
#679=VECTOR('',#1140,1.);
#680=VECTOR('',#1141,1.);
#681=VECTOR('',#1144,1.);
#682=VECTOR('',#1145,1.);
#683=VECTOR('',#1146,1.);
#684=VECTOR('',#1147,1.);
#685=VECTOR('',#1150,1.);
#686=VECTOR('',#1151,1.);
#687=VECTOR('',#1152,1.);
#688=VECTOR('',#1153,1.);
#689=VECTOR('',#1154,1.);
#690=VECTOR('',#1155,1.);
#691=VECTOR('',#1156,1.);
#692=VECTOR('',#1157,1.);
#693=VECTOR('',#1160,1.);
#694=VECTOR('',#1161,1.);
#695=VECTOR('',#1162,1.);
#696=VECTOR('',#1165,1.);
#697=VECTOR('',#1166,1.);
#698=VECTOR('',#1171,1.);
#699=VECTOR('',#1174,1.);
#700=VECTOR('',#1181,1.);
#701=VECTOR('',#1182,1.);
#702=VECTOR('',#1187,1.);
#703=VECTOR('',#1190,1.);
#704=VECTOR('',#1203,1.);
#705=VECTOR('',#1204,1.);
#706=VECTOR('',#1207,1.);
#707=VECTOR('',#1210,1.);
#708=VECTOR('',#1213,1.);
#709=VECTOR('',#1226,1.);
#710=VECTOR('',#1231,1.);
#711=VECTOR('',#1234,1.);
#712=VECTOR('',#1239,1.);
#713=VECTOR('',#1240,1.);
#714=VECTOR('',#1243,1.);
#715=VECTOR('',#1244,1.);
#716=VECTOR('',#1245,1.);
#717=VECTOR('',#1246,1.);
#718=VECTOR('',#1247,1.);
#719=VECTOR('',#1248,1.);
#720=VECTOR('',#1249,1.);
#721=VECTOR('',#1250,1.);
#722=VECTOR('',#1251,1.);
#723=VECTOR('',#1252,1.);
#724=VECTOR('',#1253,1.);
#725=VECTOR('',#1254,1.);
#726=VECTOR('',#1255,1.);
#727=VECTOR('',#1256,1.);
#728=VECTOR('',#1257,1.);
#729=VECTOR('',#1258,1.);
#730=VECTOR('',#1259,1.);
#731=VECTOR('',#1260,1.);
#732=VECTOR('',#1263,1.);
#733=VECTOR('',#1264,1.);
#734=VECTOR('',#1299,1.);
#735=VECTOR('',#1302,1.);
#736=VECTOR('',#1307,1.);
#737=VECTOR('',#1308,1.);
#738=VECTOR('',#1311,1.);
#739=VECTOR('',#1314,1.);
#740=VECTOR('',#1319,1.);
#741=VECTOR('',#1320,1.);
#742=VECTOR('',#1323,1.);
#743=VECTOR('',#1326,1.);
#744=VECTOR('',#1331,1.);
#745=VECTOR('',#1332,1.);
#746=VECTOR('',#1335,1.);
#747=VECTOR('',#1338,1.);
#748=VECTOR('',#1343,1.);
#749=VECTOR('',#1344,1.);
#750=VECTOR('',#1347,1.);
#751=VECTOR('',#1350,1.);
#752=EDGE_LOOP('',(#48,#49,#50,#51,#52,#53,#54,#55));
#753=EDGE_LOOP('',(#56));
#754=EDGE_LOOP('',(#57,#58,#59,#60,#61));
#755=EDGE_LOOP('',(#62));
#756=EDGE_LOOP('',(#63,#64,#65,#66,#67));
#757=EDGE_LOOP('',(#68,#69,#70,#71));
#758=EDGE_LOOP('',(#72,#73,#74,#75));
#759=EDGE_LOOP('',(#76,#77,#78,#79));
#760=EDGE_LOOP('',(#80,#81,#82,#83));
#761=EDGE_LOOP('',(#84,#85,#86,#87,#88,#89));
#762=EDGE_LOOP('',(#90,#91,#92,#93,#94,#95));
#763=EDGE_LOOP('',(#96,#97,#98,#99,#100,#101,#102,#103,#104,#105));
#764=EDGE_LOOP('',(#106,#107,#108,#109,#110,#111));
#765=EDGE_LOOP('',(#112,#113,#114,#115));
#766=EDGE_LOOP('',(#116,#117,#118,#119));
#767=EDGE_LOOP('',(#120,#121,#122,#123));
#768=EDGE_LOOP('',(#124));
#769=EDGE_LOOP('',(#125));
#770=EDGE_LOOP('',(#126,#127,#128,#129));
#771=EDGE_LOOP('',(#130,#131,#132,#133));
#772=EDGE_LOOP('',(#134,#135,#136,#137));
#773=EDGE_LOOP('',(#138));
#774=EDGE_LOOP('',(#139));
#775=EDGE_LOOP('',(#140));
#776=EDGE_LOOP('',(#141,#142,#143,#144,#145,#146,#147,#148,#149,#150));
#777=EDGE_LOOP('',(#151));
#778=EDGE_LOOP('',(#152,#153,#154,#155,#156,#157,#158,#159,#160,#161,#162,
#163,#164,#165,#166,#167));
#779=EDGE_LOOP('',(#168));
#780=EDGE_LOOP('',(#169));
#781=EDGE_LOOP('',(#170));
#782=EDGE_LOOP('',(#171));
#783=EDGE_LOOP('',(#172,#173,#174,#175,#176,#177,#178,#179));
#784=EDGE_LOOP('',(#180,#181,#182,#183));
#785=EDGE_LOOP('',(#184,#185,#186,#187));
#786=EDGE_LOOP('',(#188,#189,#190,#191));
#787=EDGE_LOOP('',(#192,#193,#194,#195));
#788=EDGE_LOOP('',(#196,#197,#198,#199));
#789=EDGE_LOOP('',(#200,#201,#202,#203));
#790=EDGE_LOOP('',(#204,#205,#206,#207));
#791=EDGE_LOOP('',(#208,#209,#210,#211));
#792=EDGE_LOOP('',(#212,#213,#214,#215));
#793=EDGE_LOOP('',(#216,#217,#218,#219));
#794=EDGE_LOOP('',(#220,#221,#222,#223));
#795=EDGE_LOOP('',(#224));
#796=EDGE_LOOP('',(#225));
#797=EDGE_LOOP('',(#226));
#798=EDGE_LOOP('',(#227));
#799=EDGE_LOOP('',(#228));
#800=EDGE_LOOP('',(#229));
#801=EDGE_LOOP('',(#230));
#802=EDGE_LOOP('',(#231));
#803=EDGE_LOOP('',(#232));
#804=EDGE_LOOP('',(#233));
#805=EDGE_LOOP('',(#234));
#806=EDGE_LOOP('',(#235));
#807=EDGE_LOOP('',(#236,#237,#238,#239));
#808=EDGE_LOOP('',(#240,#241,#242,#243));
#809=EDGE_LOOP('',(#244,#245,#246,#247));
#810=EDGE_LOOP('',(#248,#249,#250,#251));
#811=EDGE_LOOP('',(#252,#253,#254,#255));
#812=EDGE_LOOP('',(#256,#257,#258,#259));
#813=EDGE_LOOP('',(#260,#261,#262,#263));
#814=EDGE_LOOP('',(#264,#265,#266,#267));
#815=EDGE_LOOP('',(#268,#269,#270,#271));
#816=EDGE_LOOP('',(#272,#273,#274,#275));
#817=EDGE_LOOP('',(#276,#277,#278,#279));
#818=EDGE_LOOP('',(#280,#281,#282,#283));
#819=EDGE_LOOP('',(#284,#285,#286,#287));
#820=EDGE_LOOP('',(#288,#289,#290,#291));
#821=EDGE_LOOP('',(#292,#293,#294,#295));
#822=EDGE_LOOP('',(#296,#297,#298,#299));
#823=EDGE_LOOP('',(#300,#301,#302,#303));
#824=EDGE_LOOP('',(#304,#305,#306,#307));
#825=EDGE_LOOP('',(#308,#309,#310,#311));
#826=FACE_BOUND('',#752,.T.);
#827=FACE_BOUND('',#753,.T.);
#828=FACE_BOUND('',#754,.T.);
#829=FACE_BOUND('',#755,.T.);
#830=FACE_BOUND('',#756,.T.);
#831=FACE_BOUND('',#757,.T.);
#832=FACE_BOUND('',#758,.T.);
#833=FACE_BOUND('',#759,.T.);
#834=FACE_BOUND('',#760,.T.);
#835=FACE_BOUND('',#761,.T.);
#836=FACE_BOUND('',#762,.T.);
#837=FACE_BOUND('',#763,.T.);
#838=FACE_BOUND('',#764,.T.);
#839=FACE_BOUND('',#765,.T.);
#840=FACE_BOUND('',#766,.T.);
#841=FACE_BOUND('',#767,.T.);
#842=FACE_BOUND('',#768,.T.);
#843=FACE_BOUND('',#769,.T.);
#844=FACE_BOUND('',#770,.T.);
#845=FACE_BOUND('',#771,.T.);
#846=FACE_BOUND('',#772,.T.);
#847=FACE_BOUND('',#773,.T.);
#848=FACE_BOUND('',#774,.T.);
#849=FACE_BOUND('',#775,.T.);
#850=FACE_BOUND('',#776,.T.);
#851=FACE_BOUND('',#777,.T.);
#852=FACE_BOUND('',#778,.T.);
#853=FACE_BOUND('',#779,.T.);
#854=FACE_BOUND('',#780,.T.);
#855=FACE_BOUND('',#781,.T.);
#856=FACE_BOUND('',#782,.T.);
#857=FACE_BOUND('',#783,.T.);
#858=FACE_BOUND('',#784,.T.);
#859=FACE_BOUND('',#785,.T.);
#860=FACE_BOUND('',#786,.T.);
#861=FACE_BOUND('',#787,.T.);
#862=FACE_BOUND('',#788,.T.);
#863=FACE_BOUND('',#789,.T.);
#864=FACE_BOUND('',#790,.T.);
#865=FACE_BOUND('',#791,.T.);
#866=FACE_BOUND('',#792,.T.);
#867=FACE_BOUND('',#793,.T.);
#868=FACE_BOUND('',#794,.T.);
#869=FACE_BOUND('',#795,.T.);
#870=FACE_BOUND('',#796,.T.);
#871=FACE_BOUND('',#797,.T.);
#872=FACE_BOUND('',#798,.T.);
#873=FACE_BOUND('',#799,.T.);
#874=FACE_BOUND('',#800,.T.);
#875=FACE_BOUND('',#801,.T.);
#876=FACE_BOUND('',#802,.T.);
#877=FACE_BOUND('',#803,.T.);
#878=FACE_BOUND('',#804,.T.);
#879=FACE_BOUND('',#805,.T.);
#880=FACE_BOUND('',#806,.T.);
#881=FACE_BOUND('',#807,.T.);
#882=FACE_BOUND('',#808,.T.);
#883=FACE_BOUND('',#809,.T.);
#884=FACE_BOUND('',#810,.T.);
#885=FACE_BOUND('',#811,.T.);
#886=FACE_BOUND('',#812,.T.);
#887=FACE_BOUND('',#813,.T.);
#888=FACE_BOUND('',#814,.T.);
#889=FACE_BOUND('',#815,.T.);
#890=FACE_BOUND('',#816,.T.);
#891=FACE_BOUND('',#817,.T.);
#892=FACE_BOUND('',#818,.T.);
#893=FACE_BOUND('',#819,.T.);
#894=FACE_BOUND('',#820,.T.);
#895=FACE_BOUND('',#821,.T.);
#896=FACE_BOUND('',#822,.T.);
#897=FACE_BOUND('',#823,.T.);
#898=FACE_BOUND('',#824,.T.);
#899=FACE_BOUND('',#825,.T.);
#900=PLANE('',#1009);
#901=PLANE('',#1010);
#902=PLANE('',#1013);
#903=PLANE('',#1016);
#904=PLANE('',#1017);
#905=PLANE('',#1018);
#906=PLANE('',#1019);
#907=PLANE('',#1020);
#908=PLANE('',#1023);
#909=PLANE('',#1026);
#910=PLANE('',#1029);
#911=PLANE('',#1032);
#912=PLANE('',#1033);
#913=PLANE('',#1034);
#914=PLANE('',#1035);
#915=PLANE('',#1044);
#916=PLANE('',#1049);
#917=PLANE('',#1050);
#918=PLANE('',#1051);
#919=PLANE('',#1058);
#920=PLANE('',#1061);
#921=PLANE('',#1064);
#922=PLANE('',#1067);
#923=PLANE('',#1068);
#924=PLANE('',#1069);
#925=PLANE('',#1070);
#926=PLANE('',#1071);
#927=PLANE('',#1072);
#928=PLANE('',#1073);
#929=PLANE('',#1074);
#930=PLANE('',#1075);
#931=PLANE('',#1076);
#932=PLANE('',#1077);
#933=PLANE('',#1078);
#934=PLANE('',#1079);
#935=PLANE('',#1080);
#936=PLANE('',#1081);
#937=PLANE('',#1082);
#938=PLANE('',#1083);
#939=PLANE('',#1084);
#940=PLANE('',#1085);
#941=PLANE('',#1086);
#942=ADVANCED_FACE('',(#826),#900,.T.);
#943=ADVANCED_FACE('',(#827,#828),#901,.T.);
#944=ADVANCED_FACE('',(#829,#830),#902,.T.);
#945=ADVANCED_FACE('',(#831,#832,#833,#834,#835),#903,.F.);
#946=ADVANCED_FACE('',(#836),#904,.T.);
#947=ADVANCED_FACE('',(#837),#905,.T.);
#948=ADVANCED_FACE('',(#838),#906,.F.);
#949=ADVANCED_FACE('',(#839),#907,.F.);
#950=ADVANCED_FACE('',(#840),#12,.T.);
#951=ADVANCED_FACE('',(#841),#908,.F.);
#952=ADVANCED_FACE('',(#842,#843),#13,.F.);
#953=ADVANCED_FACE('',(#844),#909,.T.);
#954=ADVANCED_FACE('',(#845),#14,.T.);
#955=ADVANCED_FACE('',(#846),#910,.F.);
#956=ADVANCED_FACE('',(#847,#848),#15,.F.);
#957=ADVANCED_FACE('',(#849),#911,.T.);
#958=ADVANCED_FACE('',(#850),#912,.T.);
#959=ADVANCED_FACE('',(#851),#913,.T.);
#960=ADVANCED_FACE('',(#852,#853,#854,#855,#856),#914,.T.);
#961=ADVANCED_FACE('',(#857),#915,.F.);
#962=ADVANCED_FACE('',(#858),#916,.F.);
#963=ADVANCED_FACE('Face appearance 1',(#859,#860,#861,#862,#863),#917,
 .F.);
#964=ADVANCED_FACE('',(#864),#918,.T.);
#965=ADVANCED_FACE('',(#865),#16,.T.);
#966=ADVANCED_FACE('',(#866),#17,.T.);
#967=ADVANCED_FACE('',(#867),#18,.T.);
#968=ADVANCED_FACE('',(#868),#19,.T.);
#969=ADVANCED_FACE('',(#869,#870),#20,.F.);
#970=ADVANCED_FACE('',(#871),#919,.T.);
#971=ADVANCED_FACE('',(#872,#873),#21,.F.);
#972=ADVANCED_FACE('',(#874),#920,.T.);
#973=ADVANCED_FACE('',(#875,#876),#22,.F.);
#974=ADVANCED_FACE('',(#877),#921,.T.);
#975=ADVANCED_FACE('',(#878,#879),#23,.F.);
#976=ADVANCED_FACE('',(#880),#922,.T.);
#977=ADVANCED_FACE('',(#881),#923,.T.);
#978=ADVANCED_FACE('',(#882),#924,.F.);
#979=ADVANCED_FACE('',(#883),#925,.F.);
#980=ADVANCED_FACE('',(#884),#926,.T.);
#981=ADVANCED_FACE('',(#885),#927,.F.);
#982=ADVANCED_FACE('',(#886),#928,.T.);
#983=ADVANCED_FACE('',(#887),#929,.F.);
#984=ADVANCED_FACE('',(#888),#930,.T.);
#985=ADVANCED_FACE('',(#889),#931,.F.);
#986=ADVANCED_FACE('',(#890),#932,.T.);
#987=ADVANCED_FACE('',(#891),#933,.F.);
#988=ADVANCED_FACE('',(#892),#934,.T.);
#989=ADVANCED_FACE('',(#893),#935,.F.);
#990=ADVANCED_FACE('',(#894),#936,.T.);
#991=ADVANCED_FACE('',(#895),#937,.F.);
#992=ADVANCED_FACE('',(#896),#938,.T.);
#993=ADVANCED_FACE('',(#897),#939,.F.);
#994=ADVANCED_FACE('',(#898),#940,.T.);
#995=ADVANCED_FACE('',(#899),#941,.F.);
#996=CLOSED_SHELL('',(#942,#943,#944,#945,#946,#947,#948,#949,#950,#951,
#952,#953,#954,#955,#956,#957,#958,#959,#960,#961,#962,#963,#964,#965,#966,
#967,#968,#969,#970,#971,#972,#973,#974,#975,#976,#977,#978,#979,#980,#981,
#982,#983,#984,#985,#986,#987,#988,#989,#990,#991,#992,#993,#994,#995));
#997=STYLED_ITEM('',(#998),#1005);
#998=PRESENTATION_STYLE_ASSIGNMENT((#999));
#999=SURFACE_STYLE_USAGE(.BOTH.,#1000);
#1000=SURFACE_SIDE_STYLE('',(#1001));
#1001=SURFACE_STYLE_FILL_AREA(#1002);
#1002=FILL_AREA_STYLE('',(#1003));
#1003=FILL_AREA_STYLE_COLOUR('',#1004);
#1004=COLOUR_RGB('',0.647058823529412,0.647058823529412,0.647058823529412);
#1005=MANIFOLD_SOLID_BREP('Part 1',#996);
#1006=SHAPE_DEFINITION_REPRESENTATION(#1638,#1007);
#1007=SHAPE_REPRESENTATION('Part 1',(#1008),#1633);
#1008=AXIS2_PLACEMENT_3D('',#1353,#1087,#1088);
#1009=AXIS2_PLACEMENT_3D('',#1354,#1089,#1090);
#1010=AXIS2_PLACEMENT_3D('',#1371,#1099,#1100);
#1011=AXIS2_PLACEMENT_3D('',#1372,#1101,#1102);
#1012=AXIS2_PLACEMENT_3D('',#1383,#1107,#1108);
#1013=AXIS2_PLACEMENT_3D('',#1384,#1109,#1110);
#1014=AXIS2_PLACEMENT_3D('',#1385,#1111,#1112);
#1015=AXIS2_PLACEMENT_3D('',#1396,#1117,#1118);
#1016=AXIS2_PLACEMENT_3D('',#1397,#1119,#1120);
#1017=AXIS2_PLACEMENT_3D('',#1439,#1142,#1143);
#1018=AXIS2_PLACEMENT_3D('',#1447,#1148,#1149);
#1019=AXIS2_PLACEMENT_3D('',#1462,#1158,#1159);
#1020=AXIS2_PLACEMENT_3D('',#1467,#1163,#1164);
#1021=AXIS2_PLACEMENT_3D('',#1471,#1167,#1168);
#1022=AXIS2_PLACEMENT_3D('',#1472,#1169,#1170);
#1023=AXIS2_PLACEMENT_3D('',#1475,#1172,#1173);
#1024=AXIS2_PLACEMENT_3D('',#1477,#1175,#1176);
#1025=AXIS2_PLACEMENT_3D('',#1478,#1177,#1178);
#1026=AXIS2_PLACEMENT_3D('',#1480,#1179,#1180);
#1027=AXIS2_PLACEMENT_3D('',#1484,#1183,#1184);
#1028=AXIS2_PLACEMENT_3D('',#1485,#1185,#1186);
#1029=AXIS2_PLACEMENT_3D('',#1488,#1188,#1189);
#1030=AXIS2_PLACEMENT_3D('',#1490,#1191,#1192);
#1031=AXIS2_PLACEMENT_3D('',#1491,#1193,#1194);
#1032=AXIS2_PLACEMENT_3D('',#1493,#1195,#1196);
#1033=AXIS2_PLACEMENT_3D('',#1494,#1197,#1198);
#1034=AXIS2_PLACEMENT_3D('',#1495,#1199,#1200);
#1035=AXIS2_PLACEMENT_3D('',#1496,#1201,#1202);
#1036=AXIS2_PLACEMENT_3D('',#1499,#1205,#1206);
#1037=AXIS2_PLACEMENT_3D('',#1503,#1208,#1209);
#1038=AXIS2_PLACEMENT_3D('',#1507,#1211,#1212);
#1039=AXIS2_PLACEMENT_3D('',#1511,#1214,#1215);
#1040=AXIS2_PLACEMENT_3D('',#1512,#1216,#1217);
#1041=AXIS2_PLACEMENT_3D('',#1514,#1218,#1219);
#1042=AXIS2_PLACEMENT_3D('',#1516,#1220,#1221);
#1043=AXIS2_PLACEMENT_3D('',#1518,#1222,#1223);
#1044=AXIS2_PLACEMENT_3D('',#1520,#1224,#1225);
#1045=AXIS2_PLACEMENT_3D('',#1524,#1227,#1228);
#1046=AXIS2_PLACEMENT_3D('',#1525,#1229,#1230);
#1047=AXIS2_PLACEMENT_3D('',#1529,#1232,#1233);
#1048=AXIS2_PLACEMENT_3D('',#1533,#1235,#1236);
#1049=AXIS2_PLACEMENT_3D('',#1534,#1237,#1238);
#1050=AXIS2_PLACEMENT_3D('',#1537,#1241,#1242);
#1051=AXIS2_PLACEMENT_3D('',#1572,#1261,#1262);
#1052=AXIS2_PLACEMENT_3D('',#1575,#1265,#1266);
#1053=AXIS2_PLACEMENT_3D('',#1576,#1267,#1268);
#1054=AXIS2_PLACEMENT_3D('',#1577,#1269,#1270);
#1055=AXIS2_PLACEMENT_3D('',#1578,#1271,#1272);
#1056=AXIS2_PLACEMENT_3D('',#1579,#1273,#1274);
#1057=AXIS2_PLACEMENT_3D('',#1580,#1275,#1276);
#1058=AXIS2_PLACEMENT_3D('',#1582,#1277,#1278);
#1059=AXIS2_PLACEMENT_3D('',#1583,#1279,#1280);
#1060=AXIS2_PLACEMENT_3D('',#1584,#1281,#1282);
#1061=AXIS2_PLACEMENT_3D('',#1586,#1283,#1284);
#1062=AXIS2_PLACEMENT_3D('',#1587,#1285,#1286);
#1063=AXIS2_PLACEMENT_3D('',#1588,#1287,#1288);
#1064=AXIS2_PLACEMENT_3D('',#1590,#1289,#1290);
#1065=AXIS2_PLACEMENT_3D('',#1591,#1291,#1292);
#1066=AXIS2_PLACEMENT_3D('',#1592,#1293,#1294);
#1067=AXIS2_PLACEMENT_3D('',#1594,#1295,#1296);
#1068=AXIS2_PLACEMENT_3D('',#1595,#1297,#1298);
#1069=AXIS2_PLACEMENT_3D('',#1597,#1300,#1301);
#1070=AXIS2_PLACEMENT_3D('',#1599,#1303,#1304);
#1071=AXIS2_PLACEMENT_3D('',#1600,#1305,#1306);
#1072=AXIS2_PLACEMENT_3D('',#1603,#1309,#1310);
#1073=AXIS2_PLACEMENT_3D('',#1605,#1312,#1313);
#1074=AXIS2_PLACEMENT_3D('',#1607,#1315,#1316);
#1075=AXIS2_PLACEMENT_3D('',#1608,#1317,#1318);
#1076=AXIS2_PLACEMENT_3D('',#1611,#1321,#1322);
#1077=AXIS2_PLACEMENT_3D('',#1613,#1324,#1325);
#1078=AXIS2_PLACEMENT_3D('',#1615,#1327,#1328);
#1079=AXIS2_PLACEMENT_3D('',#1616,#1329,#1330);
#1080=AXIS2_PLACEMENT_3D('',#1619,#1333,#1334);
#1081=AXIS2_PLACEMENT_3D('',#1621,#1336,#1337);
#1082=AXIS2_PLACEMENT_3D('',#1623,#1339,#1340);
#1083=AXIS2_PLACEMENT_3D('',#1624,#1341,#1342);
#1084=AXIS2_PLACEMENT_3D('',#1627,#1345,#1346);
#1085=AXIS2_PLACEMENT_3D('',#1629,#1348,#1349);
#1086=AXIS2_PLACEMENT_3D('',#1631,#1351,#1352);
#1087=DIRECTION('',(0.,0.,1.));
#1088=DIRECTION('',(1.,0.,0.));
#1089=DIRECTION('',(0.,1.,0.));
#1090=DIRECTION('',(0.,0.,1.));
#1091=DIRECTION('',(-1.,0.,2.47817639425258E-16));
#1092=DIRECTION('',(1.12352556734249E-16,0.,1.));
#1093=DIRECTION('',(-1.,0.,0.));
#1094=DIRECTION('',(0.,0.,1.));
#1095=DIRECTION('',(-1.,0.,0.));
#1096=DIRECTION('',(0.,0.,1.));
#1097=DIRECTION('',(-1.,0.,0.));
#1098=DIRECTION('',(0.,0.,1.));
#1099=DIRECTION('',(0.,0.,1.));
#1100=DIRECTION('',(1.,0.,0.));
#1101=DIRECTION('',(0.,0.,1.));
#1102=DIRECTION('',(1.,0.,0.));
#1103=DIRECTION('',(-0.707106781186548,-0.707106781186547,0.));
#1104=DIRECTION('',(0.,-1.,0.));
#1105=DIRECTION('',(-1.,0.,0.));
#1106=DIRECTION('',(0.707106781186548,0.707106781186547,0.));
#1107=DIRECTION('',(0.,0.,1.));
#1108=DIRECTION('',(1.,0.,0.));
#1109=DIRECTION('',(0.,0.,1.));
#1110=DIRECTION('',(1.,0.,0.));
#1111=DIRECTION('',(0.,0.,1.));
#1112=DIRECTION('',(1.,0.,0.));
#1113=DIRECTION('',(0.707106781186467,0.707106781186628,0.));
#1114=DIRECTION('',(0.,1.,0.));
#1115=DIRECTION('',(-1.,0.,0.));
#1116=DIRECTION('',(0.707106781186468,0.707106781186627,0.));
#1117=DIRECTION('',(0.,0.,1.));
#1118=DIRECTION('',(1.,0.,0.));
#1119=DIRECTION('',(0.,-1.,0.));
#1120=DIRECTION('',(0.,0.,-1.));
#1121=DIRECTION('',(0.,0.,-1.));
#1122=DIRECTION('',(-1.,0.,0.));
#1123=DIRECTION('',(0.,0.,-1.));
#1124=DIRECTION('',(-1.,0.,0.));
#1125=DIRECTION('',(4.90034880219437E-16,0.,-1.));
#1126=DIRECTION('',(-1.,0.,0.));
#1127=DIRECTION('',(0.,0.,-1.));
#1128=DIRECTION('',(-1.,0.,0.));
#1129=DIRECTION('',(2.45017440109718E-16,0.,-1.));
#1130=DIRECTION('',(-1.,0.,0.));
#1131=DIRECTION('',(4.90034880219436E-16,0.,-1.));
#1132=DIRECTION('',(-1.,0.,0.));
#1133=DIRECTION('',(0.,0.,-1.));
#1134=DIRECTION('',(-1.,0.,0.));
#1135=DIRECTION('',(0.,0.,-1.));
#1136=DIRECTION('',(-1.,0.,0.));
#1137=DIRECTION('',(0.,0.,-1.));
#1138=DIRECTION('',(0.,0.,-1.));
#1139=DIRECTION('',(-1.,0.,0.));
#1140=DIRECTION('',(0.,0.,-1.));
#1141=DIRECTION('',(-1.,0.,0.));
#1142=DIRECTION('',(1.,0.,0.));
#1143=DIRECTION('',(0.,0.,-1.));
#1144=DIRECTION('',(0.,0.,-1.));
#1145=DIRECTION('',(0.,-1.,0.));
#1146=DIRECTION('',(0.,0.,-1.));
#1147=DIRECTION('',(0.,-1.,0.));
#1148=DIRECTION('',(0.,-1.,0.));
#1149=DIRECTION('',(0.,0.,-1.));
#1150=DIRECTION('',(1.12352556734249E-16,0.,1.));
#1151=DIRECTION('',(-1.,0.,2.47817639425258E-16));
#1152=DIRECTION('',(0.,0.,1.));
#1153=DIRECTION('',(-1.,0.,0.));
#1154=DIRECTION('',(-1.,0.,0.));
#1155=DIRECTION('',(0.,0.,-1.));
#1156=DIRECTION('',(0.,0.,-1.));
#1157=DIRECTION('',(-1.,0.,0.));
#1158=DIRECTION('',(1.,0.,0.));
#1159=DIRECTION('',(0.,0.,-1.));
#1160=DIRECTION('',(0.,1.,0.));
#1161=DIRECTION('',(0.,0.,-1.));
#1162=DIRECTION('',(0.,-1.,0.));
#1163=DIRECTION('',(-0.707106781186547,0.707106781186548,0.));
#1164=DIRECTION('',(-0.707106781186548,-0.707106781186547,0.));
#1165=DIRECTION('',(0.707106781186548,0.707106781186547,0.));
#1166=DIRECTION('',(0.,0.,-1.));
#1167=DIRECTION('',(0.,0.,-1.));
#1168=DIRECTION('',(-1.,0.,0.));
#1169=DIRECTION('',(0.,0.,1.));
#1170=DIRECTION('',(1.,0.,0.));
#1171=DIRECTION('',(0.,0.,-1.));
#1172=DIRECTION('',(0.707106781186547,-0.707106781186548,0.));
#1173=DIRECTION('',(0.707106781186548,0.707106781186547,0.));
#1174=DIRECTION('',(-0.707106781186548,-0.707106781186547,0.));
#1175=DIRECTION('',(0.,0.,-1.));
#1176=DIRECTION('',(-1.,0.,0.));
#1177=DIRECTION('',(0.,0.,1.));
#1178=DIRECTION('',(1.,0.,0.));
#1179=DIRECTION('',(-0.707106781186627,0.707106781186468,0.));
#1180=DIRECTION('',(-0.707106781186468,-0.707106781186627,0.));
#1181=DIRECTION('',(0.707106781186468,0.707106781186627,0.));
#1182=DIRECTION('',(0.,0.,-1.));
#1183=DIRECTION('',(0.,0.,-1.));
#1184=DIRECTION('',(-1.,0.,0.));
#1185=DIRECTION('',(0.,0.,1.));
#1186=DIRECTION('',(1.,0.,0.));
#1187=DIRECTION('',(0.,0.,-1.));
#1188=DIRECTION('',(-0.707106781186628,0.707106781186467,0.));
#1189=DIRECTION('',(-0.707106781186467,-0.707106781186628,0.));
#1190=DIRECTION('',(0.707106781186467,0.707106781186628,0.));
#1191=DIRECTION('',(0.,0.,-1.));
#1192=DIRECTION('',(-1.,0.,0.));
#1193=DIRECTION('',(0.,0.,1.));
#1194=DIRECTION('',(1.,0.,0.));
#1195=DIRECTION('',(0.,0.,1.));
#1196=DIRECTION('',(1.,0.,0.));
#1197=DIRECTION('',(0.,0.,1.));
#1198=DIRECTION('',(1.,0.,0.));
#1199=DIRECTION('',(0.,0.,1.));
#1200=DIRECTION('',(1.,0.,0.));
#1201=DIRECTION('',(0.,0.,1.));
#1202=DIRECTION('',(1.,0.,0.));
#1203=DIRECTION('',(0.,1.,0.));
#1204=DIRECTION('',(0.,1.,0.));
#1205=DIRECTION('',(0.,0.,1.));
#1206=DIRECTION('',(1.,0.,0.));
#1207=DIRECTION('',(0.,-1.,0.));
#1208=DIRECTION('',(0.,0.,1.));
#1209=DIRECTION('',(1.,0.,0.));
#1210=DIRECTION('',(-1.,0.,0.));
#1211=DIRECTION('',(0.,0.,1.));
#1212=DIRECTION('',(1.,0.,0.));
#1213=DIRECTION('',(0.,-1.,0.));
#1214=DIRECTION('',(0.,0.,1.));
#1215=DIRECTION('',(1.,0.,0.));
#1216=DIRECTION('',(0.,0.,1.));
#1217=DIRECTION('',(1.,0.,0.));
#1218=DIRECTION('',(0.,0.,1.));
#1219=DIRECTION('',(1.,0.,0.));
#1220=DIRECTION('',(0.,0.,1.));
#1221=DIRECTION('',(1.,0.,0.));
#1222=DIRECTION('',(0.,0.,1.));
#1223=DIRECTION('',(1.,0.,0.));
#1224=DIRECTION('',(0.,0.,1.));
#1225=DIRECTION('',(1.,0.,0.));
#1226=DIRECTION('',(0.,-1.,0.));
#1227=DIRECTION('',(0.,0.,1.));
#1228=DIRECTION('',(1.,0.,0.));
#1229=DIRECTION('',(0.,0.,1.));
#1230=DIRECTION('',(1.,0.,0.));
#1231=DIRECTION('',(0.,-1.,0.));
#1232=DIRECTION('',(0.,0.,1.));
#1233=DIRECTION('',(1.,0.,0.));
#1234=DIRECTION('',(-1.,0.,0.));
#1235=DIRECTION('',(0.,0.,1.));
#1236=DIRECTION('',(1.,0.,0.));
#1237=DIRECTION('',(-1.,0.,0.));
#1238=DIRECTION('',(0.,0.,1.));
#1239=DIRECTION('',(0.,0.,1.));
#1240=DIRECTION('',(0.,0.,1.));
#1241=DIRECTION('',(0.,1.,0.));
#1242=DIRECTION('',(0.,0.,1.));
#1243=DIRECTION('',(0.,0.,1.));
#1244=DIRECTION('',(1.,0.,0.));
#1245=DIRECTION('',(0.,0.,1.));
#1246=DIRECTION('',(1.,0.,0.));
#1247=DIRECTION('',(0.,0.,1.));
#1248=DIRECTION('',(1.,0.,0.));
#1249=DIRECTION('',(-4.90034880219437E-16,0.,1.));
#1250=DIRECTION('',(1.,0.,0.));
#1251=DIRECTION('',(-4.90034880219436E-16,0.,1.));
#1252=DIRECTION('',(1.,0.,0.));
#1253=DIRECTION('',(-2.45017440109718E-16,0.,1.));
#1254=DIRECTION('',(1.,0.,0.));
#1255=DIRECTION('',(0.,0.,1.));
#1256=DIRECTION('',(1.,0.,0.));
#1257=DIRECTION('',(0.,0.,1.));
#1258=DIRECTION('',(1.,0.,0.));
#1259=DIRECTION('',(0.,0.,1.));
#1260=DIRECTION('',(0.,0.,1.));
#1261=DIRECTION('',(-1.,0.,0.));
#1262=DIRECTION('',(0.,0.,1.));
#1263=DIRECTION('',(0.,0.,1.));
#1264=DIRECTION('',(0.,0.,1.));
#1265=DIRECTION('',(0.,0.,1.));
#1266=DIRECTION('',(1.,0.,0.));
#1267=DIRECTION('',(0.,0.,-1.));
#1268=DIRECTION('',(-1.,0.,0.));
#1269=DIRECTION('',(0.,0.,1.));
#1270=DIRECTION('',(1.,0.,0.));
#1271=DIRECTION('',(0.,0.,-1.));
#1272=DIRECTION('',(-1.,0.,0.));
#1273=DIRECTION('',(0.,0.,1.));
#1274=DIRECTION('',(1.,0.,0.));
#1275=DIRECTION('',(0.,0.,1.));
#1276=DIRECTION('',(1.,0.,0.));
#1277=DIRECTION('',(0.,0.,1.));
#1278=DIRECTION('',(1.,0.,0.));
#1279=DIRECTION('',(0.,0.,1.));
#1280=DIRECTION('',(1.,0.,0.));
#1281=DIRECTION('',(0.,0.,1.));
#1282=DIRECTION('',(1.,0.,0.));
#1283=DIRECTION('',(0.,0.,1.));
#1284=DIRECTION('',(1.,0.,0.));
#1285=DIRECTION('',(0.,0.,1.));
#1286=DIRECTION('',(1.,0.,0.));
#1287=DIRECTION('',(0.,0.,1.));
#1288=DIRECTION('',(1.,0.,0.));
#1289=DIRECTION('',(0.,0.,1.));
#1290=DIRECTION('',(1.,0.,0.));
#1291=DIRECTION('',(0.,0.,1.));
#1292=DIRECTION('',(1.,0.,0.));
#1293=DIRECTION('',(0.,0.,1.));
#1294=DIRECTION('',(1.,0.,0.));
#1295=DIRECTION('',(0.,0.,1.));
#1296=DIRECTION('',(1.,0.,0.));
#1297=DIRECTION('',(-1.,0.,1.12352556734249E-16));
#1298=DIRECTION('',(1.12352556734249E-16,0.,1.));
#1299=DIRECTION('',(0.,1.,0.));
#1300=DIRECTION('',(-2.47817639425258E-16,0.,-1.));
#1301=DIRECTION('',(-1.,0.,2.47817639425258E-16));
#1302=DIRECTION('',(0.,1.,0.));
#1303=DIRECTION('',(-1.,0.,0.));
#1304=DIRECTION('',(0.,0.,1.));
#1305=DIRECTION('',(0.,0.,-1.));
#1306=DIRECTION('',(-1.,0.,0.));
#1307=DIRECTION('',(0.,-1.,0.));
#1308=DIRECTION('',(0.,-1.,0.));
#1309=DIRECTION('',(1.,0.,0.));
#1310=DIRECTION('',(0.,0.,-1.));
#1311=DIRECTION('',(0.,-1.,0.));
#1312=DIRECTION('',(1.,0.,0.));
#1313=DIRECTION('',(0.,0.,-1.));
#1314=DIRECTION('',(0.,-1.,0.));
#1315=DIRECTION('',(0.,0.,-1.));
#1316=DIRECTION('',(-1.,0.,0.));
#1317=DIRECTION('',(0.,0.,-1.));
#1318=DIRECTION('',(-1.,0.,0.));
#1319=DIRECTION('',(0.,-1.,0.));
#1320=DIRECTION('',(0.,-1.,0.));
#1321=DIRECTION('',(1.,0.,4.90034880219436E-16));
#1322=DIRECTION('',(4.90034880219436E-16,0.,-1.));
#1323=DIRECTION('',(0.,-1.,0.));
#1324=DIRECTION('',(1.,0.,2.45017440109718E-16));
#1325=DIRECTION('',(2.45017440109718E-16,0.,-1.));
#1326=DIRECTION('',(0.,-1.,0.));
#1327=DIRECTION('',(0.,0.,-1.));
#1328=DIRECTION('',(-1.,0.,0.));
#1329=DIRECTION('',(0.,0.,-1.));
#1330=DIRECTION('',(-1.,0.,0.));
#1331=DIRECTION('',(0.,-1.,0.));
#1332=DIRECTION('',(0.,-1.,0.));
#1333=DIRECTION('',(1.,0.,0.));
#1334=DIRECTION('',(0.,0.,-1.));
#1335=DIRECTION('',(0.,-1.,0.));
#1336=DIRECTION('',(1.,0.,4.90034880219437E-16));
#1337=DIRECTION('',(4.90034880219437E-16,0.,-1.));
#1338=DIRECTION('',(0.,-1.,0.));
#1339=DIRECTION('',(0.,0.,-1.));
#1340=DIRECTION('',(-1.,0.,0.));
#1341=DIRECTION('',(0.,0.,-1.));
#1342=DIRECTION('',(-1.,0.,0.));
#1343=DIRECTION('',(0.,-1.,0.));
#1344=DIRECTION('',(0.,-1.,0.));
#1345=DIRECTION('',(1.,0.,0.));
#1346=DIRECTION('',(0.,0.,-1.));
#1347=DIRECTION('',(0.,-1.,0.));
#1348=DIRECTION('',(1.,0.,0.));
#1349=DIRECTION('',(0.,0.,-1.));
#1350=DIRECTION('',(0.,-1.,0.));
#1351=DIRECTION('',(0.,0.,-1.));
#1352=DIRECTION('',(-1.,0.,0.));
#1353=CARTESIAN_POINT('',(0.,0.,0.));
#1354=CARTESIAN_POINT('',(0.,0.03555,-0.002));
#1355=CARTESIAN_POINT('',(-8.67361737988404E-19,0.03555,0.00727995360436569));
#1356=CARTESIAN_POINT('',(0.007,0.03555,0.00727995360436569));
#1357=CARTESIAN_POINT('',(-0.007,0.03555,0.00727995360436569));
#1358=CARTESIAN_POINT('',(0.007,0.03555,0.0111399536043657));
#1359=CARTESIAN_POINT('',(0.007,0.03555,0.0149999942005457));
#1360=CARTESIAN_POINT('',(0.,0.03555,0.015));
#1361=CARTESIAN_POINT('',(0.0533,0.03555,0.015));
#1362=CARTESIAN_POINT('',(0.0533,0.03555,-0.002));
#1363=CARTESIAN_POINT('',(0.0533,0.03555,-0.002));
#1364=CARTESIAN_POINT('',(0.,0.03555,-0.002));
#1365=CARTESIAN_POINT('',(-0.0533,0.03555,-0.002));
#1366=CARTESIAN_POINT('',(-0.0533,0.03555,-0.002));
#1367=CARTESIAN_POINT('',(-0.0533,0.03555,0.015));
#1368=CARTESIAN_POINT('',(0.,0.03555,0.015));
#1369=CARTESIAN_POINT('',(-0.007,0.03555,0.0149999942005457));
#1370=CARTESIAN_POINT('',(-0.007,0.03555,0.0111399536043657));
#1371=CARTESIAN_POINT('',(0.,0.,0.008));
#1372=CARTESIAN_POINT('',(-0.046,-0.02625,0.008));
#1373=CARTESIAN_POINT('',(-0.0446,-0.02625,0.008));
#1374=CARTESIAN_POINT('',(-0.0493520815280171,-0.0247937554159486,0.008));
#1375=CARTESIAN_POINT('',(-0.0484041630560343,-0.0238458369439658,0.008));
#1376=CARTESIAN_POINT('',(-0.0503,-0.0257416738879315,0.008));
#1377=CARTESIAN_POINT('',(-0.0503,6.93889390390723E-18,0.008));
#1378=CARTESIAN_POINT('',(-0.0503,-0.03055,0.008));
#1379=CARTESIAN_POINT('',(0.,-0.03055,0.008));
#1380=CARTESIAN_POINT('',(-0.0454916738879315,-0.03055,0.008));
#1381=CARTESIAN_POINT('',(-0.0445437554159486,-0.0296020815280171,0.008));
#1382=CARTESIAN_POINT('',(-0.0435958369439657,-0.0286541630560343,0.008));
#1383=CARTESIAN_POINT('',(-0.046,-0.02625,0.008));
#1384=CARTESIAN_POINT('',(0.,0.,0.008));
#1385=CARTESIAN_POINT('',(0.046,0.02625,0.008));
#1386=CARTESIAN_POINT('',(0.0474,0.02625,0.008));
#1387=CARTESIAN_POINT('',(0.0493520815280172,0.0247937554159492,0.008));
#1388=CARTESIAN_POINT('',(0.0484041630560345,0.023845836943966,0.008));
#1389=CARTESIAN_POINT('',(0.0503,0.0257416738879322,0.008));
#1390=CARTESIAN_POINT('',(0.0503,0.,0.008));
#1391=CARTESIAN_POINT('',(0.0503,0.03055,0.008));
#1392=CARTESIAN_POINT('',(0.,0.03055,0.008));
#1393=CARTESIAN_POINT('',(0.045491673887931,0.03055,0.008));
#1394=CARTESIAN_POINT('',(0.0445437554159483,0.029602081528017,0.008));
#1395=CARTESIAN_POINT('',(0.0435958369439655,0.028654163056034,0.008));
#1396=CARTESIAN_POINT('',(0.046,0.02625,0.008));
#1397=CARTESIAN_POINT('',(0.,-0.03055,0.008));
#1398=CARTESIAN_POINT('',(-0.03031,-0.03055,0.010865));
#1399=CARTESIAN_POINT('',(-0.03031,-0.03055,0.012635));
#1400=CARTESIAN_POINT('',(-0.03031,-0.03055,0.009095));
#1401=CARTESIAN_POINT('',(-0.026,-0.03055,0.009095));
#1402=CARTESIAN_POINT('',(-0.02169,-0.03055,0.009095));
#1403=CARTESIAN_POINT('',(-0.02169,-0.03055,0.010865));
#1404=CARTESIAN_POINT('',(-0.02169,-0.03055,0.012635));
#1405=CARTESIAN_POINT('',(-0.026,-0.03055,0.012635));
#1406=CARTESIAN_POINT('',(-0.01281,-0.03055,0.010865));
#1407=CARTESIAN_POINT('',(-0.01281,-0.03055,0.012635));
#1408=CARTESIAN_POINT('',(-0.01281,-0.03055,0.009095));
#1409=CARTESIAN_POINT('',(-0.0085,-0.03055,0.009095));
#1410=CARTESIAN_POINT('',(-0.00419,-0.03055,0.009095));
#1411=CARTESIAN_POINT('',(-0.00419,-0.03055,0.010865));
#1412=CARTESIAN_POINT('',(-0.00419,-0.03055,0.012635));
#1413=CARTESIAN_POINT('',(-0.0085,-0.03055,0.012635));
#1414=CARTESIAN_POINT('',(0.00419,-0.03055,0.010865));
#1415=CARTESIAN_POINT('',(0.00419,-0.03055,0.012635));
#1416=CARTESIAN_POINT('',(0.00419,-0.03055,0.009095));
#1417=CARTESIAN_POINT('',(0.0085,-0.03055,0.009095));
#1418=CARTESIAN_POINT('',(0.01281,-0.03055,0.009095));
#1419=CARTESIAN_POINT('',(0.01281,-0.03055,0.010865));
#1420=CARTESIAN_POINT('',(0.01281,-0.03055,0.012635));
#1421=CARTESIAN_POINT('',(0.0085,-0.03055,0.012635));
#1422=CARTESIAN_POINT('',(0.02219,-0.03055,0.010865));
#1423=CARTESIAN_POINT('',(0.02219,-0.03055,0.012635));
#1424=CARTESIAN_POINT('',(0.02219,-0.03055,0.009095));
#1425=CARTESIAN_POINT('',(0.0265,-0.03055,0.009095));
#1426=CARTESIAN_POINT('',(0.03081,-0.03055,0.009095));
#1427=CARTESIAN_POINT('',(0.03081,-0.03055,0.010865));
#1428=CARTESIAN_POINT('',(0.03081,-0.03055,0.012635));
#1429=CARTESIAN_POINT('',(0.0265,-0.03055,0.012635));
#1430=CARTESIAN_POINT('',(-0.0454916738879315,-0.03055,0.008));
#1431=CARTESIAN_POINT('',(-0.0454916738879315,-0.03055,0.));
#1432=CARTESIAN_POINT('',(-0.0503,-0.03055,0.015));
#1433=CARTESIAN_POINT('',(-0.0503,-0.03055,0.015));
#1434=CARTESIAN_POINT('',(0.,-0.03055,0.015));
#1435=CARTESIAN_POINT('',(0.0503,-0.03055,0.015));
#1436=CARTESIAN_POINT('',(0.0503,-0.03055,0.008));
#1437=CARTESIAN_POINT('',(0.0503,-0.03055,0.));
#1438=CARTESIAN_POINT('',(0.,-0.03055,0.));
#1439=CARTESIAN_POINT('',(-0.0503,5.20417042793042E-18,0.008));
#1440=CARTESIAN_POINT('',(-0.0503,0.03055,0.008));
#1441=CARTESIAN_POINT('',(-0.0503,0.03055,0.015));
#1442=CARTESIAN_POINT('',(-0.0503,0.03055,0.));
#1443=CARTESIAN_POINT('',(-0.0503,6.93889390390723E-18,0.015));
#1444=CARTESIAN_POINT('',(-0.0503,-0.0257416738879315,0.008));
#1445=CARTESIAN_POINT('',(-0.0503,-0.0257416738879315,0.));
#1446=CARTESIAN_POINT('',(-0.0503,5.20417042793042E-18,0.));
#1447=CARTESIAN_POINT('',(0.,0.03055,0.008));
#1448=CARTESIAN_POINT('',(0.007,0.03055,0.0111399536043657));
#1449=CARTESIAN_POINT('',(0.007,0.03055,0.00727995360436569));
#1450=CARTESIAN_POINT('',(0.007,0.03055,0.0149999971002729));
#1451=CARTESIAN_POINT('',(-8.67361737988404E-19,0.03055,0.00727995360436569));
#1452=CARTESIAN_POINT('',(-0.007,0.03055,0.00727995360436569));
#1453=CARTESIAN_POINT('',(-0.007,0.03055,0.0111399536043657));
#1454=CARTESIAN_POINT('',(-0.007,0.03055,0.0149999971002729));
#1455=CARTESIAN_POINT('',(0.,0.03055,0.015));
#1456=CARTESIAN_POINT('',(0.,0.03055,0.));
#1457=CARTESIAN_POINT('',(0.045491673887931,0.03055,0.));
#1458=CARTESIAN_POINT('',(0.045491673887931,0.03055,0.008));
#1459=CARTESIAN_POINT('',(0.0503,0.03055,0.015));
#1460=CARTESIAN_POINT('',(0.0503,0.03055,0.015));
#1461=CARTESIAN_POINT('',(0.,0.03055,0.015));
#1462=CARTESIAN_POINT('',(0.0503,1.7347234759768E-18,0.008));
#1463=CARTESIAN_POINT('',(0.0503,0.,0.015));
#1464=CARTESIAN_POINT('',(0.0503,0.0257416738879322,0.008));
#1465=CARTESIAN_POINT('',(0.0503,0.0257416738879322,0.));
#1466=CARTESIAN_POINT('',(0.0503,1.7347234759768E-18,0.));
#1467=CARTESIAN_POINT('',(-0.0445437554159486,-0.0296020815280171,0.008));
#1468=CARTESIAN_POINT('',(-0.0445437554159486,-0.0296020815280171,0.));
#1469=CARTESIAN_POINT('',(-0.0435958369439657,-0.0286541630560343,0.));
#1470=CARTESIAN_POINT('',(-0.0435958369439657,-0.0286541630560343,0.008));
#1471=CARTESIAN_POINT('',(-0.046,-0.02625,0.008));
#1472=CARTESIAN_POINT('',(-0.046,-0.02625,0.));
#1473=CARTESIAN_POINT('',(-0.0484041630560343,-0.0238458369439658,0.));
#1474=CARTESIAN_POINT('',(-0.0484041630560343,-0.0238458369439658,0.008));
#1475=CARTESIAN_POINT('',(-0.0493520815280171,-0.0247937554159486,0.008));
#1476=CARTESIAN_POINT('',(-0.0493520815280171,-0.0247937554159486,0.));
#1477=CARTESIAN_POINT('',(-0.046,-0.02625,0.008));
#1478=CARTESIAN_POINT('',(-0.046,-0.02625,0.));
#1479=CARTESIAN_POINT('',(-0.0446,-0.02625,0.));
#1480=CARTESIAN_POINT('',(0.0445437554159483,0.029602081528017,0.008));
#1481=CARTESIAN_POINT('',(0.0445437554159483,0.029602081528017,0.));
#1482=CARTESIAN_POINT('',(0.0435958369439655,0.028654163056034,0.));
#1483=CARTESIAN_POINT('',(0.0435958369439655,0.028654163056034,0.008));
#1484=CARTESIAN_POINT('',(0.046,0.02625,0.008));
#1485=CARTESIAN_POINT('',(0.046,0.02625,0.));
#1486=CARTESIAN_POINT('',(0.0484041630560345,0.023845836943966,0.));
#1487=CARTESIAN_POINT('',(0.0484041630560345,0.023845836943966,0.008));
#1488=CARTESIAN_POINT('',(0.0493520815280172,0.0247937554159492,0.008));
#1489=CARTESIAN_POINT('',(0.0493520815280172,0.0247937554159492,0.));
#1490=CARTESIAN_POINT('',(0.046,0.02625,0.008));
#1491=CARTESIAN_POINT('',(0.046,0.02625,0.));
#1492=CARTESIAN_POINT('',(0.0474,0.02625,0.));
#1493=CARTESIAN_POINT('',(0.,0.,0.));
#1494=CARTESIAN_POINT('',(0.,0.,0.));
#1495=CARTESIAN_POINT('',(0.,0.,0.));
#1496=CARTESIAN_POINT('',(0.,0.,0.015));
#1497=CARTESIAN_POINT('',(0.007,-0.035552,0.0149999942005457));
#1498=CARTESIAN_POINT('',(-0.007,-0.035552,0.0149999942005457));
#1499=CARTESIAN_POINT('',(-0.0533,0.03355,0.015));
#1500=CARTESIAN_POINT('',(-0.0553,0.03355,0.015));
#1501=CARTESIAN_POINT('',(-0.0553,6.93889390390723E-18,0.015));
#1502=CARTESIAN_POINT('',(-0.0553,-0.03355,0.015));
#1503=CARTESIAN_POINT('',(-0.0533,-0.03355,0.015));
#1504=CARTESIAN_POINT('',(-0.0533,-0.03555,0.015));
#1505=CARTESIAN_POINT('',(0.,-0.03555,0.015));
#1506=CARTESIAN_POINT('',(0.0533,-0.03555,0.015));
#1507=CARTESIAN_POINT('',(0.0533,-0.03355,0.015));
#1508=CARTESIAN_POINT('',(0.0553,-0.03355,0.015));
#1509=CARTESIAN_POINT('',(0.0553,6.93889390390723E-18,0.015));
#1510=CARTESIAN_POINT('',(0.0553,0.03355,0.015));
#1511=CARTESIAN_POINT('',(0.0533,0.03355,0.015));
#1512=CARTESIAN_POINT('',(-0.0524213203435596,-0.0326713203435596,0.015));
#1513=CARTESIAN_POINT('',(-0.0510213203435596,-0.0326713203435596,0.015));
#1514=CARTESIAN_POINT('',(0.0524213203435597,-0.0326713203435596,0.015));
#1515=CARTESIAN_POINT('',(0.0538213203435597,-0.0326713203435596,0.015));
#1516=CARTESIAN_POINT('',(0.0524213203435597,0.0326713203435596,0.015));
#1517=CARTESIAN_POINT('',(0.0538213203435597,0.0326713203435596,0.015));
#1518=CARTESIAN_POINT('',(-0.0524213203435597,0.0326713203435596,0.015));
#1519=CARTESIAN_POINT('',(-0.0510213203435597,0.0326713203435596,0.015));
#1520=CARTESIAN_POINT('',(0.,0.,-0.002));
#1521=CARTESIAN_POINT('',(-0.0553,6.93889390390723E-18,-0.002));
#1522=CARTESIAN_POINT('',(-0.0553,0.03355,-0.002));
#1523=CARTESIAN_POINT('',(-0.0553,-0.03355,-0.002));
#1524=CARTESIAN_POINT('',(-0.0533,0.03355,-0.002));
#1525=CARTESIAN_POINT('',(0.0533,0.03355,-0.002));
#1526=CARTESIAN_POINT('',(0.0553,0.03355,-0.002));
#1527=CARTESIAN_POINT('',(0.0553,6.93889390390723E-18,-0.002));
#1528=CARTESIAN_POINT('',(0.0553,-0.03355,-0.002));
#1529=CARTESIAN_POINT('',(0.0533,-0.03355,-0.002));
#1530=CARTESIAN_POINT('',(0.0533,-0.03555,-0.002));
#1531=CARTESIAN_POINT('',(0.,-0.03555,-0.002));
#1532=CARTESIAN_POINT('',(-0.0533,-0.03555,-0.002));
#1533=CARTESIAN_POINT('',(-0.0533,-0.03355,-0.002));
#1534=CARTESIAN_POINT('',(0.0553,6.93889390390723E-18,-0.002));
#1535=CARTESIAN_POINT('',(0.0553,0.03355,0.015));
#1536=CARTESIAN_POINT('',(0.0553,-0.03355,-0.002));
#1537=CARTESIAN_POINT('',(0.,-0.03555,-0.002));
#1538=CARTESIAN_POINT('',(-0.02169,-0.03555,0.010865));
#1539=CARTESIAN_POINT('',(-0.02169,-0.03555,0.009095));
#1540=CARTESIAN_POINT('',(-0.02169,-0.03555,0.012635));
#1541=CARTESIAN_POINT('',(-0.026,-0.03555,0.009095));
#1542=CARTESIAN_POINT('',(-0.03031,-0.03555,0.009095));
#1543=CARTESIAN_POINT('',(-0.03031,-0.03555,0.010865));
#1544=CARTESIAN_POINT('',(-0.03031,-0.03555,0.012635));
#1545=CARTESIAN_POINT('',(-0.026,-0.03555,0.012635));
#1546=CARTESIAN_POINT('',(-0.00419,-0.03555,0.010865));
#1547=CARTESIAN_POINT('',(-0.00419,-0.03555,0.009095));
#1548=CARTESIAN_POINT('',(-0.00419,-0.03555,0.012635));
#1549=CARTESIAN_POINT('',(-0.0085,-0.03555,0.009095));
#1550=CARTESIAN_POINT('',(-0.01281,-0.03555,0.009095));
#1551=CARTESIAN_POINT('',(-0.01281,-0.03555,0.010865));
#1552=CARTESIAN_POINT('',(-0.01281,-0.03555,0.012635));
#1553=CARTESIAN_POINT('',(-0.0085,-0.03555,0.012635));
#1554=CARTESIAN_POINT('',(0.01281,-0.03555,0.010865));
#1555=CARTESIAN_POINT('',(0.01281,-0.03555,0.009095));
#1556=CARTESIAN_POINT('',(0.01281,-0.03555,0.012635));
#1557=CARTESIAN_POINT('',(0.0085,-0.03555,0.009095));
#1558=CARTESIAN_POINT('',(0.00419,-0.03555,0.009095));
#1559=CARTESIAN_POINT('',(0.00419,-0.03555,0.010865));
#1560=CARTESIAN_POINT('',(0.00419,-0.03555,0.012635));
#1561=CARTESIAN_POINT('',(0.0085,-0.03555,0.012635));
#1562=CARTESIAN_POINT('',(0.03081,-0.03555,0.010865));
#1563=CARTESIAN_POINT('',(0.03081,-0.03555,0.009095));
#1564=CARTESIAN_POINT('',(0.03081,-0.03555,0.012635));
#1565=CARTESIAN_POINT('',(0.0265,-0.03555,0.009095));
#1566=CARTESIAN_POINT('',(0.02219,-0.03555,0.009095));
#1567=CARTESIAN_POINT('',(0.02219,-0.03555,0.010865));
#1568=CARTESIAN_POINT('',(0.02219,-0.03555,0.012635));
#1569=CARTESIAN_POINT('',(0.0265,-0.03555,0.012635));
#1570=CARTESIAN_POINT('',(0.0533,-0.03555,-0.002));
#1571=CARTESIAN_POINT('',(-0.0533,-0.03555,-0.002));
#1572=CARTESIAN_POINT('',(-0.0553,6.93889390390723E-18,-0.002));
#1573=CARTESIAN_POINT('',(-0.0553,0.03355,-0.002));
#1574=CARTESIAN_POINT('',(-0.0553,-0.03355,0.015));
#1575=CARTESIAN_POINT('',(-0.0533,0.03355,-0.002));
#1576=CARTESIAN_POINT('',(0.0533,0.03355,-0.002));
#1577=CARTESIAN_POINT('',(0.0533,-0.03355,-0.002));
#1578=CARTESIAN_POINT('',(-0.0533,-0.03355,-0.002));
#1579=CARTESIAN_POINT('',(-0.0524213203435597,0.0326713203435596,0.007));
#1580=CARTESIAN_POINT('',(-0.0524213203435597,0.0326713203435596,0.007));
#1581=CARTESIAN_POINT('',(-0.0510213203435597,0.0326713203435596,0.007));
#1582=CARTESIAN_POINT('',(0.,0.,0.007));
#1583=CARTESIAN_POINT('',(0.0524213203435597,0.0326713203435596,0.007));
#1584=CARTESIAN_POINT('',(0.0524213203435597,0.0326713203435596,0.007));
#1585=CARTESIAN_POINT('',(0.0538213203435597,0.0326713203435596,0.007));
#1586=CARTESIAN_POINT('',(0.,0.,0.007));
#1587=CARTESIAN_POINT('',(0.0524213203435597,-0.0326713203435596,0.007));
#1588=CARTESIAN_POINT('',(0.0524213203435597,-0.0326713203435596,0.007));
#1589=CARTESIAN_POINT('',(0.0538213203435597,-0.0326713203435596,0.007));
#1590=CARTESIAN_POINT('',(0.,0.,0.007));
#1591=CARTESIAN_POINT('',(-0.0524213203435596,-0.0326713203435596,0.007));
#1592=CARTESIAN_POINT('',(-0.0524213203435596,-0.0326713203435596,0.007));
#1593=CARTESIAN_POINT('',(-0.0510213203435596,-0.0326713203435596,0.007));
#1594=CARTESIAN_POINT('',(0.,0.,0.007));
#1595=CARTESIAN_POINT('',(0.007,-0.035552,0.0111399536043657));
#1596=CARTESIAN_POINT('',(0.007,-0.035552,0.00727995360436569));
#1597=CARTESIAN_POINT('',(-8.67361737988404E-19,-0.035552,0.00727995360436569));
#1598=CARTESIAN_POINT('',(-0.007,-0.035552,0.00727995360436569));
#1599=CARTESIAN_POINT('',(-0.007,-0.035552,0.0111399536043657));
#1600=CARTESIAN_POINT('',(0.0265,0.035552,0.012635));
#1601=CARTESIAN_POINT('',(0.03081,0.035552,0.012635));
#1602=CARTESIAN_POINT('',(0.02219,0.035552,0.012635));
#1603=CARTESIAN_POINT('',(0.03081,0.035552,0.010865));
#1604=CARTESIAN_POINT('',(0.03081,0.035552,0.009095));
#1605=CARTESIAN_POINT('',(0.02219,0.035552,0.010865));
#1606=CARTESIAN_POINT('',(0.02219,0.035552,0.009095));
#1607=CARTESIAN_POINT('',(0.0265,0.035552,0.009095));
#1608=CARTESIAN_POINT('',(0.0085,0.035552,0.012635));
#1609=CARTESIAN_POINT('',(0.01281,0.035552,0.012635));
#1610=CARTESIAN_POINT('',(0.00419,0.035552,0.012635));
#1611=CARTESIAN_POINT('',(0.01281,0.035552,0.010865));
#1612=CARTESIAN_POINT('',(0.01281,0.035552,0.009095));
#1613=CARTESIAN_POINT('',(0.00419,0.035552,0.010865));
#1614=CARTESIAN_POINT('',(0.00419,0.035552,0.009095));
#1615=CARTESIAN_POINT('',(0.0085,0.035552,0.009095));
#1616=CARTESIAN_POINT('',(-0.0085,0.035552,0.012635));
#1617=CARTESIAN_POINT('',(-0.00419,0.035552,0.012635));
#1618=CARTESIAN_POINT('',(-0.01281,0.035552,0.012635));
#1619=CARTESIAN_POINT('',(-0.00419,0.035552,0.010865));
#1620=CARTESIAN_POINT('',(-0.00419,0.035552,0.009095));
#1621=CARTESIAN_POINT('',(-0.01281,0.035552,0.010865));
#1622=CARTESIAN_POINT('',(-0.01281,0.035552,0.009095));
#1623=CARTESIAN_POINT('',(-0.0085,0.035552,0.009095));
#1624=CARTESIAN_POINT('',(-0.026,0.035552,0.012635));
#1625=CARTESIAN_POINT('',(-0.02169,0.035552,0.012635));
#1626=CARTESIAN_POINT('',(-0.03031,0.035552,0.012635));
#1627=CARTESIAN_POINT('',(-0.02169,0.035552,0.010865));
#1628=CARTESIAN_POINT('',(-0.02169,0.035552,0.009095));
#1629=CARTESIAN_POINT('',(-0.03031,0.035552,0.010865));
#1630=CARTESIAN_POINT('',(-0.03031,0.035552,0.009095));
#1631=CARTESIAN_POINT('',(-0.026,0.035552,0.009095));
#1632=MECHANICAL_DESIGN_GEOMETRIC_PRESENTATION_REPRESENTATION('',(#997),
#1633);
#1633=(
GEOMETRIC_REPRESENTATION_CONTEXT(3)
GLOBAL_UNCERTAINTY_ASSIGNED_CONTEXT((#1634))
GLOBAL_UNIT_ASSIGNED_CONTEXT((#1637,#1636,#1635))
REPRESENTATION_CONTEXT('Part 1','TOP_LEVEL_ASSEMBLY_PART')
);
#1634=UNCERTAINTY_MEASURE_WITH_UNIT(LENGTH_MEASURE(2.0579945428833E-7),
#1637,'DISTANCE_ACCURACY_VALUE','Maximum Tolerance applied to model');
#1635=(
NAMED_UNIT(*)
SI_UNIT($,.STERADIAN.)
SOLID_ANGLE_UNIT()
);
#1636=(
NAMED_UNIT(*)
PLANE_ANGLE_UNIT()
SI_UNIT($,.RADIAN.)
);
#1637=(
LENGTH_UNIT()
NAMED_UNIT(*)
SI_UNIT($,.METRE.)
);
#1638=PRODUCT_DEFINITION_SHAPE('','',#1639);
#1639=PRODUCT_DEFINITION('','',#1641,#1640);
#1640=PRODUCT_DEFINITION_CONTEXT('',#1647,'design');
#1641=PRODUCT_DEFINITION_FORMATION_WITH_SPECIFIED_SOURCE('','',#1643,
 .NOT_KNOWN.);
#1642=PRODUCT_RELATED_PRODUCT_CATEGORY('','',(#1643));
#1643=PRODUCT('Part 1','Part 1','Part 1',(#1645));
#1644=PRODUCT_CATEGORY('','');
#1645=PRODUCT_CONTEXT('',#1647,'mechanical');
#1646=APPLICATION_PROTOCOL_DEFINITION('international standard',
'ap242_managed_model_based_3d_engineering',2020,#1647);
#1647=APPLICATION_CONTEXT('managed model based 3d engineering');
ENDSEC;
END-ISO-10303-21;
